G04 #@! TF.GenerationSoftware,KiCad,Pcbnew,7.0.5*
G04 #@! TF.CreationDate,2023-09-01T13:21:59+02:00*
G04 #@! TF.ProjectId,R1S_NRF,5231535f-4e52-4462-9e6b-696361645f70,v02*
G04 #@! TF.SameCoordinates,Original*
G04 #@! TF.FileFunction,Paste,Top*
G04 #@! TF.FilePolarity,Positive*
%FSLAX46Y46*%
G04 Gerber Fmt 4.6, Leading zero omitted, Abs format (unit mm)*
G04 Created by KiCad (PCBNEW 7.0.5) date 2023-09-01 13:21:59*
%MOMM*%
%LPD*%
G01*
G04 APERTURE LIST*
G04 Aperture macros list*
%AMRoundRect*
0 Rectangle with rounded corners*
0 $1 Rounding radius*
0 $2 $3 $4 $5 $6 $7 $8 $9 X,Y pos of 4 corners*
0 Add a 4 corners polygon primitive as box body*
4,1,4,$2,$3,$4,$5,$6,$7,$8,$9,$2,$3,0*
0 Add four circle primitives for the rounded corners*
1,1,$1+$1,$2,$3*
1,1,$1+$1,$4,$5*
1,1,$1+$1,$6,$7*
1,1,$1+$1,$8,$9*
0 Add four rect primitives between the rounded corners*
20,1,$1+$1,$2,$3,$4,$5,0*
20,1,$1+$1,$4,$5,$6,$7,0*
20,1,$1+$1,$6,$7,$8,$9,0*
20,1,$1+$1,$8,$9,$2,$3,0*%
G04 Aperture macros list end*
%ADD10C,0.010000*%
%ADD11RoundRect,0.007500X-0.292500X-0.117500X0.292500X-0.117500X0.292500X0.117500X-0.292500X0.117500X0*%
%ADD12RoundRect,0.017500X-0.107500X-0.282500X0.107500X-0.282500X0.107500X0.282500X-0.107500X0.282500X0*%
%ADD13RoundRect,0.147500X-0.172500X0.147500X-0.172500X-0.147500X0.172500X-0.147500X0.172500X0.147500X0*%
%ADD14RoundRect,0.250000X0.300000X0.300000X-0.300000X0.300000X-0.300000X-0.300000X0.300000X-0.300000X0*%
%ADD15RoundRect,0.050000X0.362500X0.050000X-0.362500X0.050000X-0.362500X-0.050000X0.362500X-0.050000X0*%
%ADD16RoundRect,0.050000X0.050000X0.362500X-0.050000X0.362500X-0.050000X-0.362500X0.050000X-0.362500X0*%
%ADD17R,1.500000X1.500000*%
%ADD18RoundRect,0.135000X-0.135000X-0.185000X0.135000X-0.185000X0.135000X0.185000X-0.135000X0.185000X0*%
%ADD19RoundRect,0.135000X0.135000X0.185000X-0.135000X0.185000X-0.135000X-0.185000X0.135000X-0.185000X0*%
%ADD20RoundRect,0.140000X-0.140000X-0.170000X0.140000X-0.170000X0.140000X0.170000X-0.140000X0.170000X0*%
%ADD21RoundRect,0.140000X0.170000X-0.140000X0.170000X0.140000X-0.170000X0.140000X-0.170000X-0.140000X0*%
%ADD22R,0.750000X0.700000*%
%ADD23R,0.250000X0.550000*%
%ADD24R,0.610000X0.350000*%
%ADD25R,0.350000X0.610000*%
%ADD26RoundRect,0.135000X0.185000X-0.135000X0.185000X0.135000X-0.185000X0.135000X-0.185000X-0.135000X0*%
%ADD27RoundRect,0.140000X-0.170000X0.140000X-0.170000X-0.140000X0.170000X-0.140000X0.170000X0.140000X0*%
%ADD28RoundRect,0.140000X0.140000X0.170000X-0.140000X0.170000X-0.140000X-0.170000X0.140000X-0.170000X0*%
%ADD29RoundRect,0.135000X-0.185000X0.135000X-0.185000X-0.135000X0.185000X-0.135000X0.185000X0.135000X0*%
%ADD30RoundRect,0.147500X-0.147500X-0.172500X0.147500X-0.172500X0.147500X0.172500X-0.147500X0.172500X0*%
G04 APERTURE END LIST*
G04 #@! TO.C,U2*
D10*
X205386000Y-79796000D02*
X204446000Y-79796000D01*
X204446000Y-78856000D01*
X205386000Y-78856000D01*
X205386000Y-79796000D01*
G36*
X205386000Y-79796000D02*
G01*
X204446000Y-79796000D01*
X204446000Y-78856000D01*
X205386000Y-78856000D01*
X205386000Y-79796000D01*
G37*
X205386000Y-80936000D02*
X204446000Y-80936000D01*
X204446000Y-79996000D01*
X205386000Y-79996000D01*
X205386000Y-80936000D01*
G36*
X205386000Y-80936000D02*
G01*
X204446000Y-80936000D01*
X204446000Y-79996000D01*
X205386000Y-79996000D01*
X205386000Y-80936000D01*
G37*
X206526000Y-79796000D02*
X205586000Y-79796000D01*
X205586000Y-78856000D01*
X206526000Y-78856000D01*
X206526000Y-79796000D01*
G36*
X206526000Y-79796000D02*
G01*
X205586000Y-79796000D01*
X205586000Y-78856000D01*
X206526000Y-78856000D01*
X206526000Y-79796000D01*
G37*
X206526000Y-80936000D02*
X205586000Y-80936000D01*
X205586000Y-79996000D01*
X206526000Y-79996000D01*
X206526000Y-80936000D01*
G36*
X206526000Y-80936000D02*
G01*
X205586000Y-80936000D01*
X205586000Y-79996000D01*
X206526000Y-79996000D01*
X206526000Y-80936000D01*
G37*
G04 #@! TD*
D11*
G04 #@! TO.C,U2*
X203086000Y-78146000D03*
X203086000Y-78646000D03*
X203086000Y-79146000D03*
X203086000Y-79646000D03*
X203086000Y-80146000D03*
X203086000Y-80646000D03*
X203086000Y-81146000D03*
X203086000Y-81646000D03*
D12*
X203736000Y-82296000D03*
X204236000Y-82296000D03*
X204736000Y-82296000D03*
X205236000Y-82296000D03*
X205736000Y-82296000D03*
X206236000Y-82296000D03*
X206736000Y-82296000D03*
X207236000Y-82296000D03*
D11*
X207886000Y-81646000D03*
X207886000Y-81146000D03*
X207886000Y-80646000D03*
X207886000Y-80146000D03*
X207886000Y-79646000D03*
X207886000Y-79146000D03*
X207886000Y-78646000D03*
X207886000Y-78146000D03*
D12*
X207236000Y-77496000D03*
X206736000Y-77496000D03*
X206236000Y-77496000D03*
X205736000Y-77496000D03*
X205236000Y-77496000D03*
X204736000Y-77496000D03*
X204236000Y-77496000D03*
X203736000Y-77496000D03*
G04 #@! TD*
D13*
G04 #@! TO.C,L2*
X206756000Y-76431000D03*
X206756000Y-75461000D03*
G04 #@! TD*
D14*
G04 #@! TO.C,U1*
X207110000Y-93318000D03*
X207110000Y-91948000D03*
X207110000Y-90578000D03*
X205740000Y-93318000D03*
X205740000Y-91948000D03*
X205740000Y-90578000D03*
X204370000Y-93318000D03*
X204370000Y-91948000D03*
X204370000Y-90578000D03*
D15*
X208677500Y-94148000D03*
X208677500Y-93748000D03*
X208677500Y-93348000D03*
X208677500Y-92948000D03*
X208677500Y-92548000D03*
X208677500Y-92148000D03*
X208677500Y-91748000D03*
X208677500Y-91348000D03*
X208677500Y-90948000D03*
X208677500Y-90548000D03*
X208677500Y-90148000D03*
X208677500Y-89748000D03*
D16*
X207940000Y-89010500D03*
X207540000Y-89010500D03*
X207140000Y-89010500D03*
X206740000Y-89010500D03*
X206340000Y-89010500D03*
X205940000Y-89010500D03*
X205540000Y-89010500D03*
X205140000Y-89010500D03*
X204740000Y-89010500D03*
X204340000Y-89010500D03*
X203940000Y-89010500D03*
X203540000Y-89010500D03*
D15*
X202802500Y-89748000D03*
X202802500Y-90148000D03*
X202802500Y-90548000D03*
X202802500Y-90948000D03*
X202802500Y-91348000D03*
X202802500Y-91748000D03*
X202802500Y-92148000D03*
X202802500Y-92548000D03*
X202802500Y-92948000D03*
X202802500Y-93348000D03*
X202802500Y-93748000D03*
X202802500Y-94148000D03*
D16*
X203540000Y-94885500D03*
X203940000Y-94885500D03*
X204340000Y-94885500D03*
X204740000Y-94885500D03*
X205140000Y-94885500D03*
X205540000Y-94885500D03*
X205940000Y-94885500D03*
X206340000Y-94885500D03*
X206740000Y-94885500D03*
X207140000Y-94885500D03*
X207540000Y-94885500D03*
X207940000Y-94885500D03*
G04 #@! TD*
D17*
G04 #@! TO.C,J3*
X199644000Y-103886000D03*
X202184000Y-103886000D03*
G04 #@! TD*
G04 #@! TO.C,J2*
X205994000Y-103886000D03*
X208534000Y-103886000D03*
G04 #@! TD*
D18*
G04 #@! TO.C,R25*
X217676000Y-72136000D03*
X218696000Y-72136000D03*
G04 #@! TD*
G04 #@! TO.C,R24*
X217676000Y-70866000D03*
X218696000Y-70866000D03*
G04 #@! TD*
D19*
G04 #@! TO.C,R23*
X222252000Y-70866000D03*
X221232000Y-70866000D03*
G04 #@! TD*
D20*
G04 #@! TO.C,C34*
X216210000Y-68072000D03*
X217170000Y-68072000D03*
G04 #@! TD*
D21*
G04 #@! TO.C,C33*
X202184000Y-67790000D03*
X202184000Y-66830000D03*
G04 #@! TD*
D22*
G04 #@! TO.C,Y1*
X197953000Y-96512000D03*
X199303000Y-96512000D03*
X199303000Y-95512000D03*
X197953000Y-95512000D03*
G04 #@! TD*
D23*
G04 #@! TO.C,U4*
X218448000Y-69193000D03*
X218948000Y-69193000D03*
X219448000Y-69193000D03*
X219448000Y-66443000D03*
X218948000Y-66443000D03*
X218448000Y-66443000D03*
G04 #@! TD*
D24*
G04 #@! TO.C,U3*
X201532000Y-63766000D03*
X201532000Y-64266000D03*
X201532000Y-64766000D03*
X201532000Y-65266000D03*
D25*
X202192000Y-65426000D03*
X202692000Y-65426000D03*
X203192000Y-65426000D03*
D24*
X203852000Y-65266000D03*
X203852000Y-64766000D03*
X203852000Y-64266000D03*
X203852000Y-63766000D03*
D25*
X203192000Y-63606000D03*
X202692000Y-63606000D03*
X202192000Y-63606000D03*
G04 #@! TD*
D26*
G04 #@! TO.C,R22*
X209042000Y-73154000D03*
X209042000Y-72134000D03*
G04 #@! TD*
G04 #@! TO.C,R21*
X210312000Y-73154000D03*
X210312000Y-72134000D03*
G04 #@! TD*
G04 #@! TO.C,R20*
X207772000Y-73154000D03*
X207772000Y-72134000D03*
G04 #@! TD*
G04 #@! TO.C,R19*
X204724000Y-73647000D03*
X204724000Y-72627000D03*
G04 #@! TD*
D19*
G04 #@! TO.C,R18*
X199138000Y-84582000D03*
X198118000Y-84582000D03*
G04 #@! TD*
G04 #@! TO.C,R17*
X199138000Y-82042000D03*
X198118000Y-82042000D03*
G04 #@! TD*
G04 #@! TO.C,R16*
X199138000Y-79502000D03*
X198118000Y-79502000D03*
G04 #@! TD*
D26*
G04 #@! TO.C,R15*
X203454000Y-73647000D03*
X203454000Y-72627000D03*
G04 #@! TD*
D19*
G04 #@! TO.C,R14*
X199138000Y-83312000D03*
X198118000Y-83312000D03*
G04 #@! TD*
G04 #@! TO.C,R13*
X199138000Y-80772000D03*
X198118000Y-80772000D03*
G04 #@! TD*
G04 #@! TO.C,R12*
X199138000Y-78232000D03*
X198118000Y-78232000D03*
G04 #@! TD*
D27*
G04 #@! TO.C,C32*
X209042000Y-74196000D03*
X209042000Y-75156000D03*
G04 #@! TD*
G04 #@! TO.C,C31*
X204724000Y-74689000D03*
X204724000Y-75649000D03*
G04 #@! TD*
D20*
G04 #@! TO.C,C30*
X200184000Y-76962000D03*
X201144000Y-76962000D03*
G04 #@! TD*
G04 #@! TO.C,C29*
X200184000Y-79502000D03*
X201144000Y-79502000D03*
G04 #@! TD*
G04 #@! TO.C,C28*
X200184000Y-82042000D03*
X201144000Y-82042000D03*
G04 #@! TD*
D21*
G04 #@! TO.C,C27*
X210312000Y-75156000D03*
X210312000Y-74196000D03*
G04 #@! TD*
G04 #@! TO.C,C26*
X207772000Y-75156000D03*
X207772000Y-74196000D03*
G04 #@! TD*
G04 #@! TO.C,C25*
X203454000Y-75649000D03*
X203454000Y-74689000D03*
G04 #@! TD*
D28*
G04 #@! TO.C,C24*
X201116000Y-78232000D03*
X200156000Y-78232000D03*
G04 #@! TD*
G04 #@! TO.C,C23*
X201144000Y-80772000D03*
X200184000Y-80772000D03*
G04 #@! TD*
G04 #@! TO.C,C16*
X201142000Y-83312000D03*
X200182000Y-83312000D03*
G04 #@! TD*
D29*
G04 #@! TO.C,R4*
X207518000Y-99312000D03*
X207518000Y-100332000D03*
G04 #@! TD*
D27*
G04 #@! TO.C,C18*
X199898000Y-99697600D03*
X199898000Y-100657600D03*
G04 #@! TD*
D28*
G04 #@! TO.C,C7*
X199362000Y-94234000D03*
X198402000Y-94234000D03*
G04 #@! TD*
G04 #@! TO.C,C21*
X203934000Y-99060000D03*
X202974000Y-99060000D03*
G04 #@! TD*
G04 #@! TO.C,C12*
X202156000Y-96266000D03*
X201196000Y-96266000D03*
G04 #@! TD*
D27*
G04 #@! TO.C,C22*
X201422000Y-99596000D03*
X201422000Y-100556000D03*
G04 #@! TD*
D20*
G04 #@! TO.C,C11*
X209070000Y-87884000D03*
X210030000Y-87884000D03*
G04 #@! TD*
G04 #@! TO.C,C2*
X197894000Y-98044000D03*
X198854000Y-98044000D03*
G04 #@! TD*
D29*
G04 #@! TO.C,R8*
X203708000Y-85342000D03*
X203708000Y-86362000D03*
G04 #@! TD*
D20*
G04 #@! TO.C,C20*
X208612800Y-99314000D03*
X209572800Y-99314000D03*
G04 #@! TD*
D27*
G04 #@! TO.C,C17*
X198628000Y-99697600D03*
X198628000Y-100657600D03*
G04 #@! TD*
D21*
G04 #@! TO.C,C15*
X209139600Y-78232000D03*
X209139600Y-77272000D03*
G04 #@! TD*
G04 #@! TO.C,C10*
X200914000Y-90904000D03*
X200914000Y-89944000D03*
G04 #@! TD*
G04 #@! TO.C,C9*
X204216000Y-97254000D03*
X204216000Y-96294000D03*
G04 #@! TD*
G04 #@! TO.C,C8*
X203200000Y-97254000D03*
X203200000Y-96294000D03*
G04 #@! TD*
D29*
G04 #@! TO.C,R11*
X201676000Y-85342000D03*
X201676000Y-86362000D03*
G04 #@! TD*
G04 #@! TO.C,R9*
X202692000Y-85342000D03*
X202692000Y-86362000D03*
G04 #@! TD*
G04 #@! TO.C,R1*
X207772000Y-85342000D03*
X207772000Y-86362000D03*
G04 #@! TD*
D28*
G04 #@! TO.C,C13*
X208405600Y-83566000D03*
X209365600Y-83566000D03*
G04 #@! TD*
D27*
G04 #@! TO.C,C14*
X205740000Y-74704000D03*
X205740000Y-75664000D03*
G04 #@! TD*
D18*
G04 #@! TO.C,R2*
X208582800Y-101600000D03*
X209602800Y-101600000D03*
G04 #@! TD*
D20*
G04 #@! TO.C,C1*
X208562000Y-96266000D03*
X209522000Y-96266000D03*
G04 #@! TD*
G04 #@! TO.C,C19*
X208612800Y-100482400D03*
X209572800Y-100482400D03*
G04 #@! TD*
D29*
G04 #@! TO.C,R3*
X204724000Y-85342000D03*
X204724000Y-86362000D03*
G04 #@! TD*
D27*
G04 #@! TO.C,C3*
X207264000Y-96294000D03*
X207264000Y-97254000D03*
G04 #@! TD*
D29*
G04 #@! TO.C,R7*
X206756000Y-85342000D03*
X206756000Y-86362000D03*
G04 #@! TD*
G04 #@! TO.C,R6*
X205740000Y-85342000D03*
X205740000Y-86362000D03*
G04 #@! TD*
D28*
G04 #@! TO.C,C5*
X201394000Y-92202000D03*
X200434000Y-92202000D03*
G04 #@! TD*
D30*
G04 #@! TO.C,L1*
X198905000Y-90932000D03*
X199875000Y-90932000D03*
G04 #@! TD*
D27*
G04 #@! TO.C,C4*
X210312000Y-94262000D03*
X210312000Y-95222000D03*
G04 #@! TD*
D28*
G04 #@! TO.C,C6*
X201394000Y-93218000D03*
X200434000Y-93218000D03*
G04 #@! TD*
D18*
G04 #@! TO.C,R10*
X202944000Y-100584000D03*
X203964000Y-100584000D03*
G04 #@! TD*
D29*
G04 #@! TO.C,R5*
X206248000Y-99312000D03*
X206248000Y-100332000D03*
G04 #@! TD*
M02*
