G04 #@! TF.GenerationSoftware,KiCad,Pcbnew,7.0.5*
G04 #@! TF.CreationDate,2023-09-01T13:21:59+02:00*
G04 #@! TF.ProjectId,R1S_NRF,5231535f-4e52-4462-9e6b-696361645f70,v02*
G04 #@! TF.SameCoordinates,Original*
G04 #@! TF.FileFunction,Copper,L2,Bot*
G04 #@! TF.FilePolarity,Positive*
%FSLAX46Y46*%
G04 Gerber Fmt 4.6, Leading zero omitted, Abs format (unit mm)*
G04 Created by KiCad (PCBNEW 7.0.5) date 2023-09-01 13:21:59*
%MOMM*%
%LPD*%
G01*
G04 APERTURE LIST*
G04 #@! TA.AperFunction,ComponentPad*
%ADD10C,0.400000*%
G04 #@! TD*
G04 #@! TA.AperFunction,ComponentPad*
%ADD11R,3.500000X0.300000*%
G04 #@! TD*
G04 #@! TA.AperFunction,ComponentPad*
%ADD12C,0.500000*%
G04 #@! TD*
G04 #@! TA.AperFunction,SMDPad,CuDef*
%ADD13R,4.100000X4.100000*%
G04 #@! TD*
G04 #@! TA.AperFunction,SMDPad,CuDef*
%ADD14R,0.400000X0.400000*%
G04 #@! TD*
G04 #@! TA.AperFunction,ComponentPad*
%ADD15R,0.900000X0.500000*%
G04 #@! TD*
G04 #@! TA.AperFunction,SMDPad,CuDef*
%ADD16R,0.320000X3.500000*%
G04 #@! TD*
G04 #@! TA.AperFunction,ViaPad*
%ADD17C,0.500000*%
G04 #@! TD*
G04 #@! TA.AperFunction,ViaPad*
%ADD18C,0.508000*%
G04 #@! TD*
G04 #@! TA.AperFunction,Conductor*
%ADD19C,0.152400*%
G04 #@! TD*
G04 #@! TA.AperFunction,Conductor*
%ADD20C,0.150000*%
G04 #@! TD*
G04 APERTURE END LIST*
D10*
G04 #@! TO.P,U2,33,THERMAL_PAD*
G04 #@! TO.N,GND*
X204686000Y-79896000D03*
X205486000Y-79096000D03*
X205486000Y-79896000D03*
X205486000Y-80696000D03*
X206286000Y-79896000D03*
G04 #@! TD*
D11*
G04 #@! TO.P,J5,1,LCD_1*
G04 #@! TO.N,Net-(J5-LCD_1)*
X180086000Y-86470000D03*
G04 #@! TO.P,J5,2,LCD_2*
G04 #@! TO.N,Net-(J5-LCD_2)*
X180086000Y-85870000D03*
G04 #@! TO.P,J5,3,LCD_3*
G04 #@! TO.N,Net-(J5-LCD_3)*
X180086000Y-85270000D03*
G04 #@! TO.P,J5,4,LCD_4*
G04 #@! TO.N,Net-(J5-LCD_4)*
X180086000Y-84670000D03*
G04 #@! TO.P,J5,5,LCD_5*
G04 #@! TO.N,Net-(J5-LCD_5)*
X180086000Y-84070000D03*
G04 #@! TO.P,J5,6,LCD_6*
G04 #@! TO.N,Net-(J5-LCD_6)*
X180086000Y-83470000D03*
G04 #@! TO.P,J5,7,LCD_7*
G04 #@! TO.N,Net-(J5-LCD_7)*
X180086000Y-82870000D03*
G04 #@! TO.P,J5,8,LCD_8*
G04 #@! TO.N,Net-(J5-LCD_8)*
X180086000Y-82270000D03*
G04 #@! TO.P,J5,9,LCD_9*
G04 #@! TO.N,Net-(J5-LCD_9)*
X180086000Y-81670000D03*
G04 #@! TO.P,J5,10,LCD_10*
G04 #@! TO.N,Net-(J5-LCD_10)*
X180086000Y-81070000D03*
G04 #@! TO.P,J5,11,LCD_11*
G04 #@! TO.N,Net-(J5-LCD_11)*
X180086000Y-80470000D03*
G04 #@! TO.P,J5,12,LCD_12*
G04 #@! TO.N,unconnected-(J5-LCD_12-Pad12)*
X180086000Y-79870000D03*
G04 #@! TO.P,J5,13,LCD_13*
G04 #@! TO.N,unconnected-(J5-LCD_13-Pad13)*
X180086000Y-79270000D03*
G04 #@! TO.P,J5,14,LCD_14*
G04 #@! TO.N,unconnected-(J5-LCD_14-Pad14)*
X180086000Y-78670000D03*
G04 #@! TO.P,J5,15,LCD_15*
G04 #@! TO.N,unconnected-(J5-LCD_15-Pad15)*
X180086000Y-78070000D03*
G04 #@! TO.P,J5,16,LCD_16*
G04 #@! TO.N,unconnected-(J5-LCD_16-Pad16)*
X180086000Y-77470000D03*
G04 #@! TO.P,J5,17,LCD_17*
G04 #@! TO.N,unconnected-(J5-LCD_17-Pad17)*
X180086000Y-76870000D03*
G04 #@! TD*
D12*
G04 #@! TO.P,U1,49,VSS*
G04 #@! TO.N,GND*
X207540000Y-93748000D03*
X207540000Y-92548000D03*
X207540000Y-91348000D03*
X207540000Y-90148000D03*
X206340000Y-93748000D03*
X206340000Y-92548000D03*
X206340000Y-91348000D03*
X206340000Y-90148000D03*
D13*
X205740000Y-91948000D03*
D12*
X205140000Y-93748000D03*
X205140000Y-92548000D03*
X205140000Y-91348000D03*
X205140000Y-90148000D03*
X203940000Y-93748000D03*
X203940000Y-92548000D03*
X203940000Y-91348000D03*
X203940000Y-90148000D03*
G04 #@! TD*
D14*
G04 #@! TO.P,D1,1,COMM*
G04 #@! TO.N,/COMM*
X220264000Y-72436000D03*
G04 #@! TO.P,D1,2,R*
G04 #@! TO.N,Net-(D1-R)*
X220264000Y-71786000D03*
G04 #@! TO.P,D1,3,G*
G04 #@! TO.N,Net-(D1-G)*
X219614000Y-71786000D03*
G04 #@! TO.P,D1,4,B*
G04 #@! TO.N,Net-(D1-B)*
X219614000Y-72436000D03*
G04 #@! TD*
D15*
G04 #@! TO.P,AE1,2,Shield*
G04 #@! TO.N,GND*
X195648000Y-94234000D03*
G04 #@! TD*
D16*
G04 #@! TO.P,J4,1,C2P*
G04 #@! TO.N,Net-(J4-C2P)*
X199115144Y-98624400D03*
G04 #@! TO.P,J4,2,C2N*
G04 #@! TO.N,Net-(J4-C2N)*
X199730528Y-98624400D03*
G04 #@! TO.P,J4,3,C1P*
G04 #@! TO.N,Net-(J4-C1P)*
X200345912Y-98624400D03*
G04 #@! TO.P,J4,4,C1N*
G04 #@! TO.N,Net-(J4-C1N)*
X200961296Y-98624400D03*
G04 #@! TO.P,J4,5,VCC*
G04 #@! TO.N,+3V3*
X201576680Y-98624400D03*
G04 #@! TO.P,J4,6,VBREF*
G04 #@! TO.N,unconnected-(J4-VBREF-Pad6)*
X202192064Y-98624400D03*
G04 #@! TO.P,J4,7,VSS*
G04 #@! TO.N,GND*
X202807448Y-98624400D03*
G04 #@! TO.P,J4,8,VDD*
G04 #@! TO.N,+3V3*
X203422832Y-98624400D03*
G04 #@! TO.P,J4,9,~{RES}*
G04 #@! TO.N,/~{RES}*
X204038216Y-98624400D03*
G04 #@! TO.P,J4,10,SCL*
G04 #@! TO.N,/SCL*
X204653600Y-98624400D03*
G04 #@! TO.P,J4,11,SDA*
G04 #@! TO.N,/SDA*
X205268984Y-98624400D03*
G04 #@! TO.P,J4,12,IREF*
G04 #@! TO.N,Net-(J4-IREF)*
X205884368Y-98624400D03*
G04 #@! TO.P,J4,13,VCOMH*
G04 #@! TO.N,Net-(J4-VCOMH)*
X206499752Y-98624400D03*
G04 #@! TO.P,J4,14,VCC*
G04 #@! TO.N,Net-(C19-Pad1)*
X207115144Y-98624400D03*
G04 #@! TD*
D17*
G04 #@! TO.N,+3V3*
X206867135Y-74310865D03*
G04 #@! TO.N,GND*
X204978000Y-66802000D03*
X203962000Y-69342000D03*
X203200000Y-67818000D03*
X200412046Y-64278366D03*
G04 #@! TO.N,/INT1*
X200660000Y-65278000D03*
G04 #@! TO.N,/INT2*
X200914000Y-88900000D03*
G04 #@! TO.N,/INT1*
X201676012Y-88646017D03*
D18*
G04 #@! TO.N,GND*
X204470000Y-102362000D03*
G04 #@! TO.N,/COMM*
X220726000Y-73152000D03*
G04 #@! TO.N,Net-(D1-B)*
X219456000Y-73151988D03*
G04 #@! TO.N,Net-(D1-R)*
X220446687Y-71145309D03*
G04 #@! TO.N,Net-(D1-G)*
X219456000Y-71120000D03*
G04 #@! TO.N,/B*
X206459320Y-69975574D03*
G04 #@! TO.N,/COMM*
X205740000Y-70612000D03*
X209550000Y-89662000D03*
G04 #@! TO.N,/B*
X209042000Y-88900000D03*
G04 #@! TO.N,/G*
X205918679Y-69600508D03*
G04 #@! TO.N,/R*
X205698382Y-68980478D03*
G04 #@! TO.N,GND*
X207721200Y-83829935D03*
G04 #@! TO.N,/G*
X208026000Y-87376000D03*
G04 #@! TO.N,/R*
X207352291Y-87464291D03*
G04 #@! TO.N,/DVI*
X204690877Y-69308877D03*
X206782009Y-88230639D03*
G04 #@! TO.N,+3V3*
X218186000Y-68072000D03*
G04 #@! TO.N,GND*
X220218000Y-62992000D03*
X223774000Y-66040000D03*
X212090000Y-66827400D03*
X212598000Y-74168000D03*
X212598000Y-71120000D03*
X215557212Y-69621400D03*
X222504000Y-68580000D03*
X213614000Y-68580000D03*
X216916000Y-63500000D03*
X211836000Y-62738000D03*
X222250000Y-69596000D03*
X213360000Y-73152000D03*
X223774000Y-71628000D03*
X221488000Y-64516000D03*
X215479250Y-64998600D03*
X214884000Y-68580000D03*
X215138000Y-72898000D03*
X199390000Y-61722000D03*
X198882000Y-64008000D03*
X206455961Y-64313513D03*
X209550000Y-66827400D03*
X210566000Y-80010000D03*
X198374000Y-73406000D03*
X183642000Y-78994000D03*
X186944000Y-79502000D03*
X192532000Y-77724000D03*
X188722000Y-87884000D03*
X194056000Y-87630000D03*
X185928000Y-87884000D03*
X191262000Y-87884000D03*
X200914000Y-84328000D03*
X200152000Y-85852000D03*
X209804000Y-102616000D03*
X209804000Y-98044000D03*
X202438000Y-102362000D03*
X198374000Y-92456000D03*
X197358000Y-93726000D03*
X193040000Y-93218000D03*
X189230000Y-93218000D03*
X179070000Y-91948000D03*
X185928000Y-93033000D03*
X179832000Y-97790000D03*
X198628000Y-86868000D03*
X195326000Y-87630000D03*
X184404000Y-87630000D03*
X189738000Y-78740000D03*
X185420000Y-78486000D03*
X209575400Y-85598000D03*
G04 #@! TO.N,/SDA*
X201422000Y-62484000D03*
G04 #@! TO.N,/SCL*
X201929995Y-61976005D03*
G04 #@! TO.N,/INT2*
X204724000Y-63754000D03*
G04 #@! TO.N,+3V3*
X204582810Y-65160627D03*
G04 #@! TO.N,GND*
X202779250Y-64428750D03*
G04 #@! TO.N,/SDA*
X210337400Y-91136134D03*
G04 #@! TO.N,/SCL*
X210032600Y-91948000D03*
G04 #@! TO.N,/~{RES}*
X209550000Y-92442984D03*
G04 #@! TO.N,/SWDCLK*
X175006000Y-95504006D03*
G04 #@! TO.N,/SWDIO*
X175006000Y-96773994D03*
G04 #@! TO.N,+3V3*
X178054012Y-96774000D03*
G04 #@! TO.N,/RST*
X178093750Y-95289750D03*
G04 #@! TO.N,GND*
X201676000Y-75438000D03*
X206783800Y-72644000D03*
X206783800Y-73451382D03*
X209042000Y-75946000D03*
X210312000Y-75946000D03*
X207772000Y-75946000D03*
X204724000Y-76454000D03*
X203439245Y-76434550D03*
X201769962Y-76962000D03*
X201769962Y-78232000D03*
X201769962Y-79502000D03*
X201769962Y-80772000D03*
X201769962Y-82042000D03*
X201769962Y-83312000D03*
G04 #@! TO.N,+3V3*
X209611476Y-84618076D03*
X208026000Y-98552000D03*
X202692000Y-94996000D03*
X208534000Y-97028000D03*
X210322302Y-86349698D03*
G04 #@! TO.N,GND*
X208416050Y-76923550D03*
G04 #@! TO.N,Net-(U2-~{RESET})*
X208534000Y-81280000D03*
X207238600Y-83192455D03*
G04 #@! TO.N,GND*
X198374000Y-66802000D03*
X200929572Y-69786072D03*
X198374000Y-71374000D03*
X207773792Y-68707000D03*
X206328610Y-66992038D03*
X208280000Y-62230000D03*
X206248000Y-61722000D03*
X197866000Y-102616000D03*
X210582153Y-64434601D03*
X205090650Y-65582800D03*
X197866000Y-99314000D03*
G04 #@! TO.N,+3V3*
X201574400Y-101650800D03*
X203454000Y-101346000D03*
G04 #@! TO.N,/SWDIO*
X199785457Y-88468307D03*
G04 #@! TO.N,/RST*
X200866132Y-87387200D03*
G04 #@! TO.N,/SWDCLK*
X200250623Y-87884000D03*
G04 #@! TO.N,Net-(J4-C2N)*
X199694800Y-101396800D03*
G04 #@! TO.N,Net-(J4-C2P)*
X198628000Y-101396800D03*
G04 #@! TO.N,Net-(J4-C1N)*
X200914000Y-101346000D03*
G04 #@! TO.N,Net-(J4-C1P)*
X200355200Y-101701600D03*
G04 #@! TO.N,Net-(C19-Pad1)*
X207665449Y-101604456D03*
G04 #@! TO.N,Net-(J4-VCOMH)*
X207212821Y-101021963D03*
G04 #@! TO.N,/~{RES}*
X204012800Y-101701600D03*
G04 #@! TO.N,/SCL*
X206019400Y-102108000D03*
G04 #@! TO.N,/SDA*
X206576939Y-101754049D03*
G04 #@! TO.N,Net-(J4-IREF)*
X207126254Y-102120635D03*
G04 #@! TD*
D19*
G04 #@! TO.N,/SDA*
X201422000Y-64016527D02*
X201422000Y-62484000D01*
X206196576Y-68072000D02*
X205477473Y-68072000D01*
X205486000Y-72136000D02*
X207264000Y-70358000D01*
X205486000Y-73603179D02*
X205486000Y-72136000D01*
X207018600Y-75135779D02*
X205486000Y-73603179D01*
X207018600Y-77036687D02*
X207018600Y-75135779D01*
X209499200Y-84047852D02*
X209499200Y-79517287D01*
X209092800Y-84454252D02*
X209499200Y-84047852D01*
X209092800Y-85802696D02*
X209092800Y-84454252D01*
X210515200Y-87225096D02*
X209092800Y-85802696D01*
X210515200Y-90958334D02*
X210515200Y-87225096D01*
X210337400Y-91136134D02*
X210515200Y-90958334D01*
G04 #@! TO.N,/SCL*
X201247495Y-61976005D02*
X201929995Y-61976005D01*
X200865600Y-62357900D02*
X201247495Y-61976005D01*
X200865600Y-64133258D02*
X200865600Y-62357900D01*
G04 #@! TO.N,/SDA*
X205477473Y-68072000D02*
X201422000Y-64016527D01*
G04 #@! TO.N,/SCL*
X205814266Y-68400266D02*
X205132608Y-68400266D01*
X206961600Y-69547600D02*
X205814266Y-68400266D01*
G04 #@! TO.N,/SDA*
X207264000Y-70358000D02*
X207264000Y-69139424D01*
G04 #@! TO.N,/SCL*
X206961600Y-70232742D02*
X206961600Y-69547600D01*
X206716200Y-75261037D02*
X205183600Y-73728437D01*
X206716200Y-77249754D02*
X206716200Y-75261037D01*
G04 #@! TO.N,/SDA*
X209499200Y-79517287D02*
X207018600Y-77036687D01*
G04 #@! TO.N,/SCL*
X209194400Y-79727954D02*
X206716200Y-77249754D01*
X209194400Y-83921600D02*
X209194400Y-79727954D01*
X205132608Y-68400266D02*
X200865600Y-64133258D01*
X208788000Y-84328000D02*
X209194400Y-83921600D01*
X208788000Y-85928948D02*
X208788000Y-84328000D01*
X210058000Y-87198948D02*
X208788000Y-85928948D01*
X209854800Y-90936234D02*
X210058000Y-90733034D01*
G04 #@! TO.N,/COMM*
X204881200Y-71470800D02*
X205740000Y-70612000D01*
X204881200Y-73853695D02*
X204881200Y-71470800D01*
X206413800Y-75386295D02*
X204881200Y-73853695D01*
G04 #@! TO.N,/SCL*
X205183600Y-73728437D02*
X205183600Y-72010742D01*
G04 #@! TO.N,/COMM*
X207933800Y-80610200D02*
X207933800Y-79155800D01*
X206502000Y-82042000D02*
X207933800Y-80610200D01*
X206413800Y-77635800D02*
X206413800Y-75386295D01*
X209550000Y-89662000D02*
X209550000Y-87122000D01*
G04 #@! TO.N,/SCL*
X210032600Y-91948000D02*
X209854800Y-91770200D01*
G04 #@! TO.N,/B*
X206303094Y-70131800D02*
X206459320Y-69975574D01*
X205541094Y-70131800D02*
X206303094Y-70131800D01*
X204578800Y-71094094D02*
X205541094Y-70131800D01*
X204578800Y-73978953D02*
X204578800Y-71094094D01*
X206111400Y-75511553D02*
X204578800Y-73978953D01*
X206111400Y-77764452D02*
X206111400Y-75511553D01*
X206197200Y-81915748D02*
X207629000Y-80483948D01*
X208788000Y-86791052D02*
X206197200Y-84200252D01*
G04 #@! TO.N,/SCL*
X209854800Y-91770200D02*
X209854800Y-90936234D01*
G04 #@! TO.N,/B*
X208788000Y-88646000D02*
X208788000Y-86791052D01*
X209042000Y-88900000D02*
X208788000Y-88646000D01*
G04 #@! TO.N,/G*
X205644728Y-69600508D02*
X205918679Y-69600508D01*
X204276400Y-70968836D02*
X205644728Y-69600508D01*
X204276400Y-74104211D02*
X204276400Y-70968836D01*
X205809000Y-75636811D02*
X204276400Y-74104211D01*
X207324200Y-80357696D02*
X207324200Y-79465964D01*
X205892400Y-84380296D02*
X205892400Y-81789496D01*
G04 #@! TO.N,/SDA*
X207264000Y-69139424D02*
X206196576Y-68072000D01*
G04 #@! TO.N,/G*
X208026000Y-86513896D02*
X205892400Y-84380296D01*
G04 #@! TO.N,/COMM*
X206502000Y-84074000D02*
X206502000Y-82042000D01*
G04 #@! TO.N,/R*
X203974000Y-70704860D02*
X205698382Y-68980478D01*
X207019400Y-79592216D02*
X205506600Y-78079416D01*
G04 #@! TO.N,/B*
X207629000Y-79282052D02*
X206111400Y-77764452D01*
G04 #@! TO.N,/R*
X205587600Y-84506548D02*
X205587600Y-81663244D01*
X207352291Y-87464291D02*
X207352291Y-86271239D01*
G04 #@! TO.N,/DVI*
X203671600Y-70328154D02*
X204690877Y-69308877D01*
X203671600Y-74468494D02*
X203671600Y-70328154D01*
X205204200Y-76001094D02*
X203671600Y-74468494D01*
G04 #@! TO.N,/R*
X205506600Y-75762069D02*
X203974000Y-74229469D01*
G04 #@! TO.N,/DVI*
X205282800Y-86731430D02*
X205282800Y-81536992D01*
G04 #@! TO.N,/G*
X205892400Y-81789496D02*
X207324200Y-80357696D01*
G04 #@! TO.N,/DVI*
X206782009Y-88230639D02*
X205282800Y-86731430D01*
G04 #@! TO.N,/G*
X208026000Y-87376000D02*
X208026000Y-86513896D01*
G04 #@! TO.N,/SCL*
X210058000Y-90733034D02*
X210058000Y-87198948D01*
G04 #@! TO.N,/G*
X207324200Y-79465964D02*
X205809000Y-77950764D01*
G04 #@! TO.N,/DVI*
X205204200Y-78208068D02*
X205204200Y-76001094D01*
G04 #@! TO.N,/R*
X207019400Y-80231444D02*
X207019400Y-79592216D01*
G04 #@! TO.N,/DVI*
X206714600Y-80105192D02*
X206714600Y-79718468D01*
G04 #@! TO.N,/COMM*
X207933800Y-79155800D02*
X206413800Y-77635800D01*
G04 #@! TO.N,/SCL*
X205183600Y-72010742D02*
X206961600Y-70232742D01*
G04 #@! TO.N,/G*
X205809000Y-77950764D02*
X205809000Y-75636811D01*
G04 #@! TO.N,/DVI*
X206714600Y-79718468D02*
X205204200Y-78208068D01*
G04 #@! TO.N,/COMM*
X209550000Y-87122000D02*
X206502000Y-84074000D01*
G04 #@! TO.N,/B*
X207629000Y-80483948D02*
X207629000Y-79282052D01*
G04 #@! TO.N,/R*
X207352291Y-86271239D02*
X205587600Y-84506548D01*
G04 #@! TO.N,/B*
X206197200Y-84200252D02*
X206197200Y-81915748D01*
G04 #@! TO.N,/R*
X205506600Y-78079416D02*
X205506600Y-75762069D01*
X205587600Y-81663244D02*
X207019400Y-80231444D01*
G04 #@! TO.N,/DVI*
X205282800Y-81536992D02*
X206714600Y-80105192D01*
G04 #@! TO.N,/R*
X203974000Y-74229469D02*
X203974000Y-70704860D01*
D20*
G04 #@! TO.N,+3V3*
X208422865Y-74310865D02*
X206867135Y-74310865D01*
X209804000Y-75692000D02*
X208422865Y-74310865D01*
D19*
G04 #@! TO.N,/~{RES}*
X209550000Y-94996000D02*
X209550000Y-92442984D01*
X208775892Y-95770108D02*
X209550000Y-94996000D01*
X204990108Y-95770108D02*
X208775892Y-95770108D01*
X204038216Y-96722000D02*
X204990108Y-95770108D01*
X204038216Y-98624400D02*
X204038216Y-96722000D01*
G04 #@! TO.N,+3V3*
X209804000Y-75692000D02*
X209804000Y-69088000D01*
X209804000Y-84582000D02*
X209804000Y-75692000D01*
D20*
G04 #@! TO.N,/INT2*
X204724000Y-63246000D02*
X204724000Y-63754000D01*
X200660000Y-61468000D02*
X202946000Y-61468000D01*
X199898000Y-62230000D02*
X200660000Y-61468000D01*
X199898000Y-65956264D02*
X199898000Y-62230000D01*
X202660245Y-68718509D02*
X199898000Y-65956264D01*
X202660245Y-86899755D02*
X202660245Y-68718509D01*
X200914000Y-88646000D02*
X202660245Y-86899755D01*
X200914000Y-88900000D02*
X200914000Y-88646000D01*
G04 #@! TO.N,/INT1*
X200660000Y-66294000D02*
X200660000Y-65278000D01*
X202992000Y-68626000D02*
X200660000Y-66294000D01*
X202992000Y-76204386D02*
X202992000Y-68626000D01*
X202960245Y-76236141D02*
X202992000Y-76204386D01*
X202960245Y-76632959D02*
X202960245Y-76236141D01*
X202992000Y-87330029D02*
X202992000Y-76664714D01*
X201676012Y-88646017D02*
X202992000Y-87330029D01*
G04 #@! TO.N,/INT2*
X202946000Y-61468000D02*
X204724000Y-63246000D01*
G04 #@! TO.N,/INT1*
X202992000Y-76664714D02*
X202960245Y-76632959D01*
D19*
G04 #@! TO.N,+3V3*
X204643237Y-65100200D02*
X204582810Y-65160627D01*
X205816200Y-65100200D02*
X204643237Y-65100200D01*
X209804000Y-69088000D02*
X205816200Y-65100200D01*
X218186000Y-68326000D02*
X218186000Y-68072000D01*
X217424000Y-69088000D02*
X218186000Y-68326000D01*
X209804000Y-69088000D02*
X217424000Y-69088000D01*
X203454000Y-102362000D02*
X203454000Y-101346000D01*
X208148049Y-98674049D02*
X208148049Y-101804356D01*
X208148049Y-101804356D02*
X206574405Y-103378000D01*
X204470000Y-103378000D02*
X203454000Y-102362000D01*
X208026000Y-98552000D02*
X208148049Y-98674049D01*
X206574405Y-103378000D02*
X204470000Y-103378000D01*
X181864000Y-92202000D02*
X178054012Y-96011988D01*
X202692000Y-90678000D02*
X198120000Y-90678000D01*
X203454000Y-91440000D02*
X202692000Y-90678000D01*
X198120000Y-90678000D02*
X196596000Y-92202000D01*
X203454000Y-94234000D02*
X203454000Y-91440000D01*
X202692000Y-94996000D02*
X203454000Y-94234000D01*
X196596000Y-92202000D02*
X181864000Y-92202000D01*
X178054012Y-96011988D02*
X178054012Y-96774000D01*
G04 #@! TO.N,/SWDCLK*
X176007656Y-94502350D02*
X175006000Y-95504006D01*
X181339632Y-91440000D02*
X181332844Y-91440000D01*
X181484832Y-91294800D02*
X181339632Y-91440000D01*
G04 #@! TO.N,/SWDIO*
X199582043Y-88468307D02*
X199785457Y-88468307D01*
X199404243Y-88646107D02*
X199582043Y-88468307D01*
G04 #@! TO.N,/SWDCLK*
X178270494Y-94502350D02*
X176007656Y-94502350D01*
G04 #@! TO.N,/SWDIO*
X199216235Y-88646107D02*
X199404243Y-88646107D01*
X196265142Y-91597200D02*
X199216235Y-88646107D01*
X181610090Y-91597200D02*
X196265142Y-91597200D01*
X181464890Y-91742400D02*
X181610090Y-91597200D01*
X178396746Y-94807150D02*
X181461496Y-91742400D01*
G04 #@! TO.N,/SWDCLK*
X199550684Y-87884000D02*
X196139884Y-91294800D01*
G04 #@! TO.N,/SWDIO*
X176972844Y-94807150D02*
X178396746Y-94807150D01*
G04 #@! TO.N,/RST*
X200265657Y-88620892D02*
X200866132Y-88020417D01*
X200265657Y-88667213D02*
X200265657Y-88620892D01*
X199984363Y-88948507D02*
X200265657Y-88667213D01*
G04 #@! TO.N,/SWDCLK*
X196139884Y-91294800D02*
X181484832Y-91294800D01*
G04 #@! TO.N,/RST*
X196390400Y-91899600D02*
X199341493Y-88948507D01*
X178345198Y-95289750D02*
X181686948Y-91948000D01*
G04 #@! TO.N,/SWDCLK*
X200250623Y-87884000D02*
X199550684Y-87884000D01*
G04 #@! TO.N,/RST*
X178093750Y-95289750D02*
X178345198Y-95289750D01*
G04 #@! TO.N,/SWDIO*
X181461496Y-91742400D02*
X181464890Y-91742400D01*
G04 #@! TO.N,/RST*
X200866132Y-88020417D02*
X200866132Y-87387200D01*
X181738742Y-91899600D02*
X196390400Y-91899600D01*
X181690342Y-91948000D02*
X181738742Y-91899600D01*
G04 #@! TO.N,/SWDIO*
X175006000Y-96773994D02*
X176972844Y-94807150D01*
G04 #@! TO.N,/SWDCLK*
X181332844Y-91440000D02*
X178270494Y-94502350D01*
G04 #@! TO.N,/RST*
X181686948Y-91948000D02*
X181690342Y-91948000D01*
X199341493Y-88948507D02*
X199984363Y-88948507D01*
G04 #@! TO.N,+3V3*
X203422832Y-101314832D02*
X203422832Y-98624400D01*
G04 #@! TO.N,Net-(J4-IREF)*
X205884368Y-98624400D02*
X205884368Y-100376010D01*
G04 #@! TO.N,/SDA*
X205268984Y-100446094D02*
X206576939Y-101754049D01*
X205268984Y-98624400D02*
X205268984Y-100446094D01*
G04 #@! TO.N,/SCL*
X204653600Y-100742200D02*
X206019400Y-102108000D01*
X204653600Y-98624400D02*
X204653600Y-100742200D01*
G04 #@! TO.N,Net-(J4-IREF)*
X207126254Y-101617896D02*
X207126254Y-102120635D01*
X205884368Y-100376010D02*
X207126254Y-101617896D01*
G04 #@! TO.N,Net-(J4-VCOMH)*
X206499752Y-100526800D02*
X206994915Y-101021963D01*
X206499752Y-98624400D02*
X206499752Y-100526800D01*
X206994915Y-101021963D02*
X207212821Y-101021963D01*
G04 #@! TO.N,Net-(C19-Pad1)*
X207695421Y-101574484D02*
X207665449Y-101604456D01*
X207115144Y-98624400D02*
X207695421Y-99204677D01*
X207695421Y-99204677D02*
X207695421Y-101574484D01*
G04 #@! TO.N,/COMM*
X220726000Y-72898000D02*
X220264000Y-72436000D01*
X220726000Y-73152000D02*
X220726000Y-72898000D01*
G04 #@! TO.N,Net-(D1-R)*
X220264000Y-71327996D02*
X220446687Y-71145309D01*
X220264000Y-71786000D02*
X220264000Y-71327996D01*
G04 #@! TO.N,Net-(D1-G)*
X219456000Y-71628000D02*
X219614000Y-71786000D01*
X219456000Y-71120000D02*
X219456000Y-71628000D01*
G04 #@! TO.N,Net-(D1-B)*
X219456000Y-72594000D02*
X219614000Y-72436000D01*
X219456000Y-73151988D02*
X219456000Y-72594000D01*
G04 #@! TO.N,+3V3*
X210322302Y-86601146D02*
X210322302Y-86349698D01*
X210820000Y-87098844D02*
X210322302Y-86601146D01*
X210820000Y-95019156D02*
X210820000Y-87098844D01*
X208811156Y-97028000D02*
X210820000Y-95019156D01*
X208534000Y-97028000D02*
X208811156Y-97028000D01*
G04 #@! TO.N,Net-(U2-~{RESET})*
X208534000Y-81280000D02*
X207238600Y-82575400D01*
X207238600Y-82575400D02*
X207238600Y-83192455D01*
G04 #@! TO.N,/SDA*
X210515200Y-91313934D02*
X210337400Y-91136134D01*
X210515200Y-94892904D02*
X210515200Y-91313934D01*
X209028396Y-96379708D02*
X210515200Y-94892904D01*
X205611276Y-96379708D02*
X209028396Y-96379708D01*
X205268984Y-98624400D02*
X205268984Y-96722000D01*
X205268984Y-96722000D02*
X205611276Y-96379708D01*
G04 #@! TO.N,/SCL*
X210032600Y-94944452D02*
X210032600Y-91948000D01*
X205300692Y-96074908D02*
X208902144Y-96074908D01*
X204653600Y-96722000D02*
X205300692Y-96074908D01*
X204653600Y-98624400D02*
X204653600Y-96722000D01*
X208902144Y-96074908D02*
X210032600Y-94944452D01*
G04 #@! TO.N,+3V3*
X209647552Y-84582000D02*
X209611476Y-84618076D01*
X209804000Y-84582000D02*
X209647552Y-84582000D01*
X208026000Y-97282000D02*
X208280000Y-97028000D01*
X208026000Y-98552000D02*
X208026000Y-97282000D01*
X208280000Y-97028000D02*
X208534000Y-97028000D01*
X210312000Y-85090000D02*
X210312000Y-86360000D01*
X209804000Y-84582000D02*
X210312000Y-85090000D01*
X201576680Y-101648520D02*
X201576680Y-98624400D01*
X201574400Y-101650800D02*
X201576680Y-101648520D01*
X203454000Y-101346000D02*
X203422832Y-101314832D01*
G04 #@! TO.N,Net-(J4-C2N)*
X199730528Y-101361072D02*
X199730528Y-98624400D01*
X199694800Y-101396800D02*
X199730528Y-101361072D01*
G04 #@! TO.N,Net-(J4-C2P)*
X198628000Y-101396800D02*
X199115144Y-100909656D01*
X199115144Y-100909656D02*
X199115144Y-98624400D01*
G04 #@! TO.N,Net-(J4-C1N)*
X200961296Y-101298704D02*
X200961296Y-98624400D01*
X200914000Y-101346000D02*
X200961296Y-101298704D01*
G04 #@! TO.N,Net-(J4-C1P)*
X200345912Y-101692312D02*
X200345912Y-98624400D01*
X200355200Y-101701600D02*
X200345912Y-101692312D01*
G04 #@! TO.N,/~{RES}*
X204038216Y-101676184D02*
X204038216Y-98624400D01*
X204012800Y-101701600D02*
X204038216Y-101676184D01*
G04 #@! TD*
G04 #@! TA.AperFunction,Conductor*
G04 #@! TO.N,GND*
G36*
X203492703Y-74709640D02*
G01*
X203499181Y-74715672D01*
X204871181Y-76087672D01*
X204904666Y-76148995D01*
X204907500Y-76175353D01*
X204907500Y-78145966D01*
X204906905Y-78154542D01*
X204905255Y-78166366D01*
X204907434Y-78213500D01*
X204907500Y-78216363D01*
X204907500Y-78235556D01*
X204907501Y-78235569D01*
X204907976Y-78238110D01*
X204908965Y-78246640D01*
X204910378Y-78277176D01*
X204913068Y-78283269D01*
X204921521Y-78310564D01*
X204922743Y-78317104D01*
X204922744Y-78317106D01*
X204938829Y-78343085D01*
X204942837Y-78350688D01*
X204952342Y-78372215D01*
X204955184Y-78378650D01*
X204959887Y-78383353D01*
X204977631Y-78405753D01*
X204981135Y-78411412D01*
X204981136Y-78411413D01*
X204981138Y-78411416D01*
X205005527Y-78429833D01*
X205012004Y-78435469D01*
X205761869Y-79185334D01*
X206381581Y-79805046D01*
X206415066Y-79866369D01*
X206417900Y-79892730D01*
X206417899Y-79930934D01*
X206398213Y-79997973D01*
X206381580Y-80018612D01*
X205116910Y-81283283D01*
X205110427Y-81288925D01*
X205100901Y-81296118D01*
X205069125Y-81330973D01*
X205067151Y-81333042D01*
X205053560Y-81346634D01*
X205053557Y-81346637D01*
X205052083Y-81348789D01*
X205046759Y-81355508D01*
X205026170Y-81378094D01*
X205026168Y-81378097D01*
X205023762Y-81384309D01*
X205010444Y-81409576D01*
X205006680Y-81415070D01*
X205006679Y-81415073D01*
X204999684Y-81444814D01*
X204997142Y-81453021D01*
X204986100Y-81481527D01*
X204986100Y-81488186D01*
X204982806Y-81516575D01*
X204981283Y-81523047D01*
X204981283Y-81523052D01*
X204985505Y-81553316D01*
X204986100Y-81561892D01*
X204986100Y-86669328D01*
X204985505Y-86677904D01*
X204983855Y-86689728D01*
X204986034Y-86736862D01*
X204986100Y-86739725D01*
X204986100Y-86758918D01*
X204986101Y-86758931D01*
X204986576Y-86761472D01*
X204987565Y-86770002D01*
X204988978Y-86800538D01*
X204991668Y-86806631D01*
X205000121Y-86833926D01*
X205001343Y-86840466D01*
X205001344Y-86840468D01*
X205017429Y-86866447D01*
X205021437Y-86874050D01*
X205033784Y-86902012D01*
X205038487Y-86906715D01*
X205056231Y-86929115D01*
X205059735Y-86934774D01*
X205059736Y-86934775D01*
X205059738Y-86934778D01*
X205081408Y-86951142D01*
X205084127Y-86953195D01*
X205090604Y-86958831D01*
X205699434Y-87567661D01*
X206266311Y-88134538D01*
X206299796Y-88195861D01*
X206302630Y-88222219D01*
X206302630Y-88230638D01*
X206322047Y-88365695D01*
X206372338Y-88475815D01*
X206378730Y-88489811D01*
X206450729Y-88572901D01*
X206468084Y-88592930D01*
X206468087Y-88592932D01*
X206582861Y-88666693D01*
X206582863Y-88666693D01*
X206582868Y-88666697D01*
X206713786Y-88705139D01*
X206850232Y-88705139D01*
X206981150Y-88666697D01*
X207095935Y-88592929D01*
X207185288Y-88489811D01*
X207241970Y-88365696D01*
X207261388Y-88230639D01*
X207241970Y-88095582D01*
X207240708Y-88086804D01*
X207242599Y-88086532D01*
X207242601Y-88027852D01*
X207280377Y-87969075D01*
X207343934Y-87940053D01*
X207361577Y-87938791D01*
X207420514Y-87938791D01*
X207551432Y-87900349D01*
X207666217Y-87826581D01*
X207666221Y-87826575D01*
X207672917Y-87820775D01*
X207675128Y-87823327D01*
X207720126Y-87794383D01*
X207789995Y-87794355D01*
X207822146Y-87809029D01*
X207826859Y-87812058D01*
X207957777Y-87850500D01*
X208094223Y-87850500D01*
X208225141Y-87812058D01*
X208300259Y-87763782D01*
X208367300Y-87744097D01*
X208434339Y-87763782D01*
X208480094Y-87816585D01*
X208491300Y-87868097D01*
X208491300Y-88583898D01*
X208490705Y-88592474D01*
X208489055Y-88604298D01*
X208491234Y-88651432D01*
X208491300Y-88654295D01*
X208491300Y-88673488D01*
X208491301Y-88673501D01*
X208491776Y-88676042D01*
X208492765Y-88684572D01*
X208494178Y-88715108D01*
X208496868Y-88721201D01*
X208505321Y-88748496D01*
X208506543Y-88755036D01*
X208506544Y-88755038D01*
X208522629Y-88781017D01*
X208526637Y-88788620D01*
X208538984Y-88816582D01*
X208541117Y-88819696D01*
X208543250Y-88826244D01*
X208543624Y-88827090D01*
X208543538Y-88827127D01*
X208562762Y-88886129D01*
X208562479Y-88891132D01*
X208562621Y-88891132D01*
X208562621Y-88899999D01*
X208582038Y-89035056D01*
X208637725Y-89156992D01*
X208638721Y-89159172D01*
X208713272Y-89245207D01*
X208728075Y-89262291D01*
X208728078Y-89262293D01*
X208842852Y-89336054D01*
X208842854Y-89336054D01*
X208842859Y-89336058D01*
X208973777Y-89374500D01*
X208973778Y-89374500D01*
X208982553Y-89375762D01*
X208982184Y-89378325D01*
X209036195Y-89394185D01*
X209081950Y-89446989D01*
X209091894Y-89516147D01*
X209091001Y-89520247D01*
X209070621Y-89662000D01*
X209090038Y-89797056D01*
X209146719Y-89921168D01*
X209146722Y-89921173D01*
X209236075Y-90024291D01*
X209236078Y-90024293D01*
X209350852Y-90098054D01*
X209350854Y-90098054D01*
X209350859Y-90098058D01*
X209481777Y-90136500D01*
X209618223Y-90136500D01*
X209619649Y-90136295D01*
X209621075Y-90136500D01*
X209627092Y-90136500D01*
X209627091Y-90137364D01*
X209688808Y-90146236D01*
X209741613Y-90191989D01*
X209761300Y-90259028D01*
X209761300Y-90558772D01*
X209741615Y-90625811D01*
X209724980Y-90646455D01*
X209688909Y-90682525D01*
X209682428Y-90688164D01*
X209672903Y-90695358D01*
X209641115Y-90730227D01*
X209639158Y-90732276D01*
X209625561Y-90745874D01*
X209625557Y-90745879D01*
X209624083Y-90748031D01*
X209618759Y-90754750D01*
X209598170Y-90777336D01*
X209598168Y-90777339D01*
X209595762Y-90783551D01*
X209582444Y-90808818D01*
X209578680Y-90814312D01*
X209578679Y-90814315D01*
X209571684Y-90844056D01*
X209569142Y-90852263D01*
X209558100Y-90880769D01*
X209558100Y-90887428D01*
X209554806Y-90915817D01*
X209553283Y-90922294D01*
X209557504Y-90952563D01*
X209558099Y-90961130D01*
X209558099Y-91708096D01*
X209557504Y-91716669D01*
X209555855Y-91728494D01*
X209558034Y-91775632D01*
X209558100Y-91778495D01*
X209558100Y-91797688D01*
X209558101Y-91797701D01*
X209558576Y-91800242D01*
X209559565Y-91808773D01*
X209561312Y-91846538D01*
X209544745Y-91914415D01*
X209494111Y-91962560D01*
X209472380Y-91971243D01*
X209350859Y-92006926D01*
X209350852Y-92006929D01*
X209236078Y-92080690D01*
X209236075Y-92080692D01*
X209146722Y-92183810D01*
X209146719Y-92183815D01*
X209090038Y-92307927D01*
X209070621Y-92442984D01*
X209090038Y-92578040D01*
X209146719Y-92702152D01*
X209146722Y-92702157D01*
X209223013Y-92790201D01*
X209252038Y-92853757D01*
X209253300Y-92871404D01*
X209253300Y-94821739D01*
X209233615Y-94888778D01*
X209216981Y-94909420D01*
X208689313Y-95437089D01*
X208627990Y-95470574D01*
X208601632Y-95473408D01*
X205052209Y-95473408D01*
X205043633Y-95472813D01*
X205031809Y-95471163D01*
X205031808Y-95471163D01*
X204984675Y-95473342D01*
X204981812Y-95473408D01*
X204962617Y-95473408D01*
X204962614Y-95473408D01*
X204962605Y-95473409D01*
X204960058Y-95473885D01*
X204951534Y-95474873D01*
X204921002Y-95476285D01*
X204914902Y-95478979D01*
X204887612Y-95487429D01*
X204881070Y-95488651D01*
X204855084Y-95504740D01*
X204847484Y-95508746D01*
X204819526Y-95521091D01*
X204814814Y-95525803D01*
X204792424Y-95543538D01*
X204786764Y-95547042D01*
X204786758Y-95547047D01*
X204768340Y-95571436D01*
X204762699Y-95577919D01*
X203872326Y-96468290D01*
X203865845Y-96473931D01*
X203856317Y-96481126D01*
X203824530Y-96515993D01*
X203822556Y-96518060D01*
X203808977Y-96531640D01*
X203808973Y-96531645D01*
X203807499Y-96533797D01*
X203802175Y-96540516D01*
X203781586Y-96563102D01*
X203781584Y-96563105D01*
X203779178Y-96569317D01*
X203765856Y-96594591D01*
X203756999Y-96607521D01*
X203702873Y-96651704D01*
X203633452Y-96659611D01*
X203630509Y-96659063D01*
X203604551Y-96653900D01*
X203241115Y-96653900D01*
X203176796Y-96666693D01*
X203176793Y-96666694D01*
X203103860Y-96715427D01*
X203055124Y-96788366D01*
X203055123Y-96788367D01*
X203042332Y-96852676D01*
X203042332Y-100396117D01*
X203055125Y-100460435D01*
X203055126Y-100460438D01*
X203105234Y-100535428D01*
X203126112Y-100602105D01*
X203126132Y-100604319D01*
X203126132Y-100953549D01*
X203106447Y-101020588D01*
X203095845Y-101034751D01*
X203050723Y-101086823D01*
X203050720Y-101086829D01*
X202994038Y-101210943D01*
X202974621Y-101345999D01*
X202994038Y-101481056D01*
X203050719Y-101605168D01*
X203050721Y-101605172D01*
X203061864Y-101618032D01*
X203127013Y-101693217D01*
X203156038Y-101756773D01*
X203157300Y-101774420D01*
X203157300Y-102299898D01*
X203156705Y-102308474D01*
X203155055Y-102320298D01*
X203157234Y-102367432D01*
X203157300Y-102370295D01*
X203157300Y-102389488D01*
X203157301Y-102389501D01*
X203157776Y-102392042D01*
X203158765Y-102400572D01*
X203160178Y-102431108D01*
X203162868Y-102437201D01*
X203171321Y-102464496D01*
X203172543Y-102471036D01*
X203172544Y-102471038D01*
X203188629Y-102497017D01*
X203192637Y-102504620D01*
X203204984Y-102532582D01*
X203209687Y-102537285D01*
X203227431Y-102559685D01*
X203230935Y-102565344D01*
X203230936Y-102565345D01*
X203230938Y-102565348D01*
X203255327Y-102583765D01*
X203261804Y-102589401D01*
X203750869Y-103078466D01*
X204216288Y-103543885D01*
X204221932Y-103550371D01*
X204229125Y-103559897D01*
X204229126Y-103559898D01*
X204229127Y-103559899D01*
X204264004Y-103591694D01*
X204266066Y-103593663D01*
X204279641Y-103607238D01*
X204281773Y-103608698D01*
X204288507Y-103614031D01*
X204311102Y-103634629D01*
X204311103Y-103634629D01*
X204311104Y-103634630D01*
X204317312Y-103637035D01*
X204342588Y-103650357D01*
X204348081Y-103654120D01*
X204363603Y-103657771D01*
X204377824Y-103661116D01*
X204386037Y-103663659D01*
X204414536Y-103674700D01*
X204414537Y-103674700D01*
X204421194Y-103674700D01*
X204449584Y-103677993D01*
X204456060Y-103679517D01*
X204486327Y-103675294D01*
X204494901Y-103674700D01*
X206512304Y-103674700D01*
X206520880Y-103675295D01*
X206532698Y-103676943D01*
X206532704Y-103676945D01*
X206573208Y-103675072D01*
X206579838Y-103674766D01*
X206582701Y-103674700D01*
X206601893Y-103674700D01*
X206601896Y-103674700D01*
X206604443Y-103674223D01*
X206612978Y-103673233D01*
X206643511Y-103671822D01*
X206649602Y-103669132D01*
X206676904Y-103660677D01*
X206683442Y-103659456D01*
X206709427Y-103643365D01*
X206717015Y-103639366D01*
X206744985Y-103627017D01*
X206749685Y-103622316D01*
X206772094Y-103604564D01*
X206777753Y-103601062D01*
X206796175Y-103576665D01*
X206801798Y-103570202D01*
X208313938Y-102058062D01*
X208320421Y-102052422D01*
X208329945Y-102045230D01*
X208329948Y-102045229D01*
X208361743Y-102010349D01*
X208363691Y-102008309D01*
X208377287Y-101994715D01*
X208378754Y-101992572D01*
X208384069Y-101985859D01*
X208404678Y-101963254D01*
X208407084Y-101957041D01*
X208420410Y-101931759D01*
X208424169Y-101926274D01*
X208431166Y-101896523D01*
X208433702Y-101888332D01*
X208444749Y-101859819D01*
X208444749Y-101853166D01*
X208448043Y-101824773D01*
X208449567Y-101818296D01*
X208445344Y-101788028D01*
X208444748Y-101779450D01*
X208444748Y-100396117D01*
X208444748Y-98804266D01*
X208455953Y-98752762D01*
X208485961Y-98687057D01*
X208505379Y-98552000D01*
X208485961Y-98416943D01*
X208429279Y-98292828D01*
X208352987Y-98204783D01*
X208323962Y-98141227D01*
X208322700Y-98123580D01*
X208322700Y-97625032D01*
X208342385Y-97557993D01*
X208395189Y-97512238D01*
X208456908Y-97503363D01*
X208456908Y-97502500D01*
X208462914Y-97502500D01*
X208464347Y-97502294D01*
X208464351Y-97502295D01*
X208465777Y-97502500D01*
X208602223Y-97502500D01*
X208733141Y-97464058D01*
X208847926Y-97390290D01*
X208903020Y-97326706D01*
X208931454Y-97302483D01*
X208946183Y-97293363D01*
X208953772Y-97289363D01*
X208981736Y-97277017D01*
X208986436Y-97272316D01*
X209008845Y-97254564D01*
X209014504Y-97251062D01*
X209032926Y-97226665D01*
X209038549Y-97220202D01*
X210965820Y-95292931D01*
X211027141Y-95259448D01*
X211096833Y-95264432D01*
X211152766Y-95306304D01*
X211177183Y-95371768D01*
X211177499Y-95380614D01*
X211177499Y-105042299D01*
X211157814Y-105109338D01*
X211141180Y-105129980D01*
X210285980Y-105985181D01*
X210224657Y-106018666D01*
X210198299Y-106021500D01*
X197979701Y-106021500D01*
X197912662Y-106001815D01*
X197892020Y-105985181D01*
X197036819Y-105129979D01*
X197003334Y-105068656D01*
X197000500Y-105042298D01*
X197000500Y-101396799D01*
X198148621Y-101396799D01*
X198168038Y-101531856D01*
X198207394Y-101618032D01*
X198224721Y-101655972D01*
X198279648Y-101719360D01*
X198314075Y-101759091D01*
X198314078Y-101759093D01*
X198428852Y-101832854D01*
X198428854Y-101832854D01*
X198428859Y-101832858D01*
X198559777Y-101871300D01*
X198696223Y-101871300D01*
X198827141Y-101832858D01*
X198941926Y-101759090D01*
X199031279Y-101655972D01*
X199048606Y-101618030D01*
X199094360Y-101565228D01*
X199161400Y-101545543D01*
X199228439Y-101565227D01*
X199274193Y-101618030D01*
X199291521Y-101655972D01*
X199346448Y-101719360D01*
X199380875Y-101759091D01*
X199380878Y-101759093D01*
X199495652Y-101832854D01*
X199495654Y-101832854D01*
X199495659Y-101832858D01*
X199626577Y-101871300D01*
X199763025Y-101871300D01*
X199763025Y-101871299D01*
X199776286Y-101867405D01*
X199790460Y-101863244D01*
X199860330Y-101863242D01*
X199919108Y-101901016D01*
X199938191Y-101930708D01*
X199951921Y-101960772D01*
X199993093Y-102008286D01*
X200041275Y-102063891D01*
X200041278Y-102063893D01*
X200156052Y-102137654D01*
X200156054Y-102137654D01*
X200156059Y-102137658D01*
X200286977Y-102176100D01*
X200423423Y-102176100D01*
X200554341Y-102137658D01*
X200669126Y-102063890D01*
X200758479Y-101960772D01*
X200789435Y-101892987D01*
X200835192Y-101840184D01*
X200902230Y-101820500D01*
X200982225Y-101820500D01*
X200982225Y-101820499D01*
X200995486Y-101816605D01*
X201009660Y-101812444D01*
X201079530Y-101812442D01*
X201138308Y-101850216D01*
X201157391Y-101879908D01*
X201171121Y-101909972D01*
X201257194Y-102009304D01*
X201260475Y-102013091D01*
X201260478Y-102013093D01*
X201375252Y-102086854D01*
X201375254Y-102086854D01*
X201375259Y-102086858D01*
X201506177Y-102125300D01*
X201642623Y-102125300D01*
X201773541Y-102086858D01*
X201888326Y-102013090D01*
X201977679Y-101909972D01*
X202034361Y-101785857D01*
X202053779Y-101650800D01*
X202034361Y-101515743D01*
X201977679Y-101391628D01*
X201936870Y-101344532D01*
X201903667Y-101306214D01*
X201874642Y-101242658D01*
X201873380Y-101225011D01*
X201873380Y-100718223D01*
X201893065Y-100651184D01*
X201945869Y-100605429D01*
X202004254Y-100595699D01*
X202004254Y-100594900D01*
X202009053Y-100594899D01*
X202009534Y-100594820D01*
X202010334Y-100594897D01*
X202010345Y-100594900D01*
X202373782Y-100594899D01*
X202438099Y-100582107D01*
X202511036Y-100533372D01*
X202559771Y-100460435D01*
X202572564Y-100396119D01*
X202572563Y-96852682D01*
X202559771Y-96788365D01*
X202559769Y-96788363D01*
X202559769Y-96788361D01*
X202511036Y-96715428D01*
X202462112Y-96682738D01*
X202438099Y-96666693D01*
X202438098Y-96666692D01*
X202438097Y-96666692D01*
X202438096Y-96666691D01*
X202373785Y-96653900D01*
X202010347Y-96653900D01*
X201946029Y-96666693D01*
X201934743Y-96671368D01*
X201933383Y-96668085D01*
X201886573Y-96682737D01*
X201835135Y-96668620D01*
X201833998Y-96671366D01*
X201822714Y-96666692D01*
X201758401Y-96653900D01*
X201394963Y-96653900D01*
X201330645Y-96666693D01*
X201319359Y-96671368D01*
X201317999Y-96668085D01*
X201271189Y-96682737D01*
X201219751Y-96668620D01*
X201218614Y-96671366D01*
X201207330Y-96666692D01*
X201143017Y-96653900D01*
X200779578Y-96653900D01*
X200779577Y-96653901D01*
X200715262Y-96666692D01*
X200703982Y-96671365D01*
X200702623Y-96668085D01*
X200655785Y-96682738D01*
X200604371Y-96668619D01*
X200603233Y-96671367D01*
X200591947Y-96666692D01*
X200527633Y-96653900D01*
X200164195Y-96653900D01*
X200099877Y-96666693D01*
X200088591Y-96671368D01*
X200087231Y-96668085D01*
X200040421Y-96682737D01*
X199988983Y-96668620D01*
X199987846Y-96671366D01*
X199976562Y-96666692D01*
X199912249Y-96653900D01*
X199548811Y-96653900D01*
X199484493Y-96666693D01*
X199473207Y-96671368D01*
X199471847Y-96668085D01*
X199425037Y-96682737D01*
X199373599Y-96668620D01*
X199372462Y-96671366D01*
X199361178Y-96666692D01*
X199296865Y-96653900D01*
X198933427Y-96653900D01*
X198869108Y-96666693D01*
X198869105Y-96666694D01*
X198796172Y-96715427D01*
X198747436Y-96788366D01*
X198747435Y-96788367D01*
X198734644Y-96852676D01*
X198734644Y-100396117D01*
X198747437Y-100460435D01*
X198747438Y-100460438D01*
X198797546Y-100535428D01*
X198818424Y-100602105D01*
X198818444Y-100604319D01*
X198818444Y-100735395D01*
X198798759Y-100802434D01*
X198782126Y-100823076D01*
X198719222Y-100885981D01*
X198657899Y-100919466D01*
X198631540Y-100922300D01*
X198559777Y-100922300D01*
X198428859Y-100960742D01*
X198428852Y-100960745D01*
X198314078Y-101034506D01*
X198314075Y-101034508D01*
X198224722Y-101137626D01*
X198224719Y-101137631D01*
X198168038Y-101261743D01*
X198148621Y-101396799D01*
X197000500Y-101396799D01*
X197000500Y-100543674D01*
X197000499Y-100543672D01*
X196998408Y-100540050D01*
X196986017Y-100510137D01*
X196984935Y-100506096D01*
X196939272Y-100460432D01*
X196920845Y-100442004D01*
X196920830Y-100441991D01*
X196512520Y-100033681D01*
X196479035Y-99972358D01*
X196484019Y-99902666D01*
X196525891Y-99846733D01*
X196591355Y-99822316D01*
X196595844Y-99822155D01*
X196596000Y-99822000D01*
X196596000Y-94488000D01*
X181356000Y-94488000D01*
X181356000Y-99547500D01*
X181336315Y-99614539D01*
X181283511Y-99660294D01*
X181232000Y-99671500D01*
X175373701Y-99671500D01*
X175306662Y-99651815D01*
X175286020Y-99635181D01*
X174430819Y-98779980D01*
X174397334Y-98718657D01*
X174394500Y-98692299D01*
X174394500Y-98511131D01*
X176007351Y-98511131D01*
X176017597Y-98673974D01*
X176068018Y-98829154D01*
X176068020Y-98829158D01*
X176155446Y-98966918D01*
X176155447Y-98966919D01*
X176155448Y-98966920D01*
X176274391Y-99078616D01*
X176274394Y-99078618D01*
X176274396Y-99078619D01*
X176417373Y-99157221D01*
X176417375Y-99157221D01*
X176417376Y-99157222D01*
X176575416Y-99197800D01*
X176575420Y-99197800D01*
X176697630Y-99197800D01*
X176697632Y-99197800D01*
X176697637Y-99197799D01*
X176697641Y-99197799D01*
X176710784Y-99196138D01*
X176818880Y-99182483D01*
X176970589Y-99122417D01*
X177030876Y-99078616D01*
X177102592Y-99026512D01*
X177102592Y-99026510D01*
X177102594Y-99026510D01*
X177206601Y-98900787D01*
X177276074Y-98753149D01*
X177306649Y-98592872D01*
X177296403Y-98430027D01*
X177245982Y-98274846D01*
X177200520Y-98203210D01*
X177158553Y-98137081D01*
X177144176Y-98123580D01*
X177039609Y-98025384D01*
X177039606Y-98025382D01*
X177039603Y-98025380D01*
X176896626Y-97946778D01*
X176738587Y-97906200D01*
X176738584Y-97906200D01*
X176616368Y-97906200D01*
X176616358Y-97906200D01*
X176495120Y-97921517D01*
X176495118Y-97921517D01*
X176343412Y-97981582D01*
X176343403Y-97981587D01*
X176211407Y-98077487D01*
X176211405Y-98077490D01*
X176107401Y-98203210D01*
X176107399Y-98203213D01*
X176065228Y-98292831D01*
X176037925Y-98350853D01*
X176025318Y-98416943D01*
X176007351Y-98511128D01*
X176007351Y-98511130D01*
X176007351Y-98511131D01*
X174394500Y-98511131D01*
X174394500Y-97125322D01*
X174414185Y-97058283D01*
X174466989Y-97012528D01*
X174536147Y-97002584D01*
X174599703Y-97031609D01*
X174612204Y-97044110D01*
X174692074Y-97136284D01*
X174692076Y-97136285D01*
X174692078Y-97136287D01*
X174806852Y-97210048D01*
X174806854Y-97210048D01*
X174806859Y-97210052D01*
X174937777Y-97248494D01*
X175074223Y-97248494D01*
X175205141Y-97210052D01*
X175319926Y-97136284D01*
X175409279Y-97033166D01*
X175465961Y-96909051D01*
X175485379Y-96773994D01*
X175485379Y-96773992D01*
X175485379Y-96765573D01*
X175505064Y-96698534D01*
X175521698Y-96677892D01*
X177059422Y-95140169D01*
X177120745Y-95106684D01*
X177147103Y-95103850D01*
X177497996Y-95103850D01*
X177565035Y-95123535D01*
X177610790Y-95176339D01*
X177620733Y-95245495D01*
X177618192Y-95263177D01*
X177614371Y-95289750D01*
X177633788Y-95424806D01*
X177690469Y-95548918D01*
X177690472Y-95548923D01*
X177779825Y-95652041D01*
X177782973Y-95654064D01*
X177785422Y-95656891D01*
X177786529Y-95657850D01*
X177786391Y-95658009D01*
X177828726Y-95706869D01*
X177838669Y-95776027D01*
X177809642Y-95839583D01*
X177807572Y-95841912D01*
X177797383Y-95853089D01*
X177797380Y-95853093D01*
X177794974Y-95859305D01*
X177781656Y-95884572D01*
X177777892Y-95890066D01*
X177777891Y-95890069D01*
X177770896Y-95919810D01*
X177768354Y-95928017D01*
X177757312Y-95956523D01*
X177757312Y-95963182D01*
X177754018Y-95991571D01*
X177752495Y-95998043D01*
X177752495Y-95998048D01*
X177756717Y-96028312D01*
X177757312Y-96036888D01*
X177757312Y-96345580D01*
X177737627Y-96412619D01*
X177727025Y-96426783D01*
X177650734Y-96514826D01*
X177650731Y-96514831D01*
X177594050Y-96638943D01*
X177574634Y-96773992D01*
X177574633Y-96774000D01*
X177576699Y-96788367D01*
X177594050Y-96909056D01*
X177650019Y-97031609D01*
X177650733Y-97033172D01*
X177740084Y-97136287D01*
X177740087Y-97136291D01*
X177740090Y-97136293D01*
X177854864Y-97210054D01*
X177854866Y-97210054D01*
X177854871Y-97210058D01*
X177985789Y-97248500D01*
X178122235Y-97248500D01*
X178253153Y-97210058D01*
X178367938Y-97136290D01*
X178457291Y-97033172D01*
X178513973Y-96909057D01*
X178533391Y-96774000D01*
X178513973Y-96638943D01*
X178457291Y-96514828D01*
X178380999Y-96426783D01*
X178351974Y-96363227D01*
X178350712Y-96345580D01*
X178350712Y-96186246D01*
X178370397Y-96119207D01*
X178387026Y-96098570D01*
X181950578Y-92535019D01*
X182011901Y-92501534D01*
X182038259Y-92498700D01*
X196533899Y-92498700D01*
X196542475Y-92499295D01*
X196554293Y-92500943D01*
X196554299Y-92500945D01*
X196594803Y-92499072D01*
X196601433Y-92498766D01*
X196604296Y-92498700D01*
X196623488Y-92498700D01*
X196623491Y-92498700D01*
X196626038Y-92498223D01*
X196634573Y-92497233D01*
X196665106Y-92495822D01*
X196671197Y-92493132D01*
X196698499Y-92484677D01*
X196705037Y-92483456D01*
X196731022Y-92467365D01*
X196738610Y-92463366D01*
X196766580Y-92451017D01*
X196771280Y-92446316D01*
X196793689Y-92428564D01*
X196799348Y-92425062D01*
X196817770Y-92400665D01*
X196823393Y-92394202D01*
X198206577Y-91011019D01*
X198267901Y-90977534D01*
X198294259Y-90974700D01*
X202517741Y-90974700D01*
X202584780Y-90994385D01*
X202605421Y-91011018D01*
X203120982Y-91526579D01*
X203154466Y-91587900D01*
X203157300Y-91614258D01*
X203157300Y-94059739D01*
X203137615Y-94126778D01*
X203120981Y-94147420D01*
X202783221Y-94485181D01*
X202721898Y-94518666D01*
X202695540Y-94521500D01*
X202623777Y-94521500D01*
X202492859Y-94559942D01*
X202492852Y-94559945D01*
X202378078Y-94633706D01*
X202378075Y-94633708D01*
X202288722Y-94736826D01*
X202288719Y-94736831D01*
X202232038Y-94860943D01*
X202212621Y-94996000D01*
X202232038Y-95131056D01*
X202284303Y-95245498D01*
X202288721Y-95255172D01*
X202333028Y-95306304D01*
X202378075Y-95358291D01*
X202378078Y-95358293D01*
X202492852Y-95432054D01*
X202492854Y-95432054D01*
X202492859Y-95432058D01*
X202623777Y-95470500D01*
X202760223Y-95470500D01*
X202891141Y-95432058D01*
X203005926Y-95358290D01*
X203095279Y-95255172D01*
X203151961Y-95131057D01*
X203171379Y-94996000D01*
X203171379Y-94995998D01*
X203171379Y-94987579D01*
X203191064Y-94920540D01*
X203207698Y-94899898D01*
X203308546Y-94799050D01*
X203619896Y-94487699D01*
X203626372Y-94482066D01*
X203635896Y-94474874D01*
X203635899Y-94474873D01*
X203667694Y-94439993D01*
X203669642Y-94437953D01*
X203683238Y-94424359D01*
X203684705Y-94422216D01*
X203690020Y-94415503D01*
X203710629Y-94392898D01*
X203713035Y-94386685D01*
X203726361Y-94361403D01*
X203730120Y-94355918D01*
X203737117Y-94326167D01*
X203739653Y-94317976D01*
X203750700Y-94289463D01*
X203750700Y-94282809D01*
X203753994Y-94254417D01*
X203755518Y-94247940D01*
X203751295Y-94217667D01*
X203750700Y-94209092D01*
X203750700Y-91502097D01*
X203751296Y-91493518D01*
X203752943Y-91481705D01*
X203752945Y-91481701D01*
X203750766Y-91434566D01*
X203750700Y-91431703D01*
X203750700Y-91412514D01*
X203750700Y-91412509D01*
X203750222Y-91409955D01*
X203749233Y-91401428D01*
X203747822Y-91370894D01*
X203745132Y-91364802D01*
X203736678Y-91337502D01*
X203735456Y-91330963D01*
X203719365Y-91304975D01*
X203715363Y-91297382D01*
X203703019Y-91269423D01*
X203703015Y-91269418D01*
X203698312Y-91264715D01*
X203680566Y-91242312D01*
X203677062Y-91236652D01*
X203652670Y-91218232D01*
X203646192Y-91212595D01*
X202945709Y-90512111D01*
X202940064Y-90505624D01*
X202932872Y-90496100D01*
X202898016Y-90464325D01*
X202895943Y-90462345D01*
X202882361Y-90448763D01*
X202882360Y-90448762D01*
X202880213Y-90447291D01*
X202873488Y-90441964D01*
X202850898Y-90421371D01*
X202850896Y-90421370D01*
X202844686Y-90418964D01*
X202819402Y-90405636D01*
X202813920Y-90401880D01*
X202813915Y-90401878D01*
X202784168Y-90394881D01*
X202775963Y-90392340D01*
X202747463Y-90381300D01*
X202747462Y-90381300D01*
X202740806Y-90381300D01*
X202712415Y-90378006D01*
X202705940Y-90376483D01*
X202675672Y-90380705D01*
X202667099Y-90381300D01*
X198627659Y-90381300D01*
X198560620Y-90361615D01*
X198514865Y-90308811D01*
X198504921Y-90239653D01*
X198533946Y-90176097D01*
X198539978Y-90169619D01*
X199428071Y-89281526D01*
X199489394Y-89248041D01*
X199515752Y-89245207D01*
X199922262Y-89245207D01*
X199930838Y-89245802D01*
X199942656Y-89247450D01*
X199942662Y-89247452D01*
X199983166Y-89245579D01*
X199989796Y-89245273D01*
X199992659Y-89245207D01*
X200011851Y-89245207D01*
X200011854Y-89245207D01*
X200014401Y-89244730D01*
X200022936Y-89243740D01*
X200053469Y-89242329D01*
X200059560Y-89239639D01*
X200086862Y-89231184D01*
X200093400Y-89229963D01*
X200119385Y-89213872D01*
X200126973Y-89209873D01*
X200154943Y-89197524D01*
X200159643Y-89192823D01*
X200182052Y-89175071D01*
X200187711Y-89171569D01*
X200206133Y-89147172D01*
X200211756Y-89140709D01*
X200287940Y-89064525D01*
X200349261Y-89031042D01*
X200418953Y-89036026D01*
X200474886Y-89077898D01*
X200488413Y-89100696D01*
X200514119Y-89156985D01*
X200514124Y-89156992D01*
X200590620Y-89245273D01*
X200602720Y-89259236D01*
X200716537Y-89332383D01*
X200776225Y-89349909D01*
X200846351Y-89370500D01*
X200846352Y-89370500D01*
X200981648Y-89370500D01*
X201111463Y-89332383D01*
X201225280Y-89259236D01*
X201313880Y-89156987D01*
X201320481Y-89142530D01*
X201366232Y-89089729D01*
X201433271Y-89070042D01*
X201469446Y-89077917D01*
X201470039Y-89075901D01*
X201478548Y-89078399D01*
X201478549Y-89078400D01*
X201517132Y-89089729D01*
X201608363Y-89116517D01*
X201608364Y-89116517D01*
X201743660Y-89116517D01*
X201873475Y-89078400D01*
X201987292Y-89005253D01*
X202075892Y-88903004D01*
X202132095Y-88779935D01*
X202151350Y-88646017D01*
X202151350Y-88646016D01*
X202151350Y-88639940D01*
X202171035Y-88572901D01*
X202187669Y-88552259D01*
X202653396Y-88086532D01*
X203157205Y-87582722D01*
X203163686Y-87577083D01*
X203173155Y-87569931D01*
X203173163Y-87569928D01*
X203204847Y-87535170D01*
X203206755Y-87533172D01*
X203220313Y-87519616D01*
X203221757Y-87517506D01*
X203227090Y-87510771D01*
X203247591Y-87488285D01*
X203249964Y-87482157D01*
X203263290Y-87456877D01*
X203267004Y-87451456D01*
X203273969Y-87421837D01*
X203276511Y-87413631D01*
X203287500Y-87385268D01*
X203287500Y-87378696D01*
X203290793Y-87350308D01*
X203292298Y-87343912D01*
X203288094Y-87313780D01*
X203287500Y-87305207D01*
X203287500Y-76726582D01*
X203288095Y-76718005D01*
X203289734Y-76706251D01*
X203289736Y-76706246D01*
X203287566Y-76659303D01*
X203287500Y-76656440D01*
X203287500Y-76637330D01*
X203287030Y-76634818D01*
X203286038Y-76626270D01*
X203285996Y-76625369D01*
X203284634Y-76595888D01*
X203281981Y-76589880D01*
X203273526Y-76562576D01*
X203273475Y-76562305D01*
X203272319Y-76556118D01*
X203272316Y-76556113D01*
X203268168Y-76545403D01*
X203270132Y-76544642D01*
X203255745Y-76494069D01*
X203255745Y-76377470D01*
X203266312Y-76327382D01*
X203267003Y-76325816D01*
X203268591Y-76319065D01*
X203273971Y-76296188D01*
X203276508Y-76287995D01*
X203287500Y-76259625D01*
X203287500Y-76253054D01*
X203290794Y-76224664D01*
X203292298Y-76218270D01*
X203288095Y-76188141D01*
X203287500Y-76179565D01*
X203287500Y-74803353D01*
X203307185Y-74736314D01*
X203359989Y-74690559D01*
X203429147Y-74680615D01*
X203492703Y-74709640D01*
G37*
G04 #@! TD.AperFunction*
G04 #@! TA.AperFunction,Conductor*
G36*
X204540119Y-101048762D02*
G01*
X204546597Y-101054794D01*
X205503702Y-102011899D01*
X205537187Y-102073222D01*
X205540021Y-102099580D01*
X205540021Y-102107999D01*
X205559438Y-102243056D01*
X205597527Y-102326458D01*
X205616121Y-102367172D01*
X205700454Y-102464496D01*
X205705475Y-102470291D01*
X205705478Y-102470293D01*
X205820252Y-102544054D01*
X205820254Y-102544054D01*
X205820259Y-102544058D01*
X205951177Y-102582500D01*
X206087623Y-102582500D01*
X206218541Y-102544058D01*
X206333326Y-102470290D01*
X206422679Y-102367172D01*
X206452882Y-102301036D01*
X206498637Y-102248234D01*
X206565676Y-102228549D01*
X206574208Y-102228549D01*
X206641247Y-102248234D01*
X206687002Y-102301038D01*
X206722971Y-102379800D01*
X206722973Y-102379804D01*
X206722975Y-102379807D01*
X206812328Y-102482925D01*
X206827495Y-102492672D01*
X206873250Y-102545476D01*
X206883194Y-102614635D01*
X206854169Y-102678190D01*
X206848137Y-102684669D01*
X206487826Y-103044981D01*
X206426503Y-103078466D01*
X206400145Y-103081300D01*
X204644259Y-103081300D01*
X204577220Y-103061615D01*
X204556578Y-103044981D01*
X203899379Y-102387781D01*
X203865894Y-102326458D01*
X203870878Y-102256766D01*
X203912750Y-102200833D01*
X203978214Y-102176416D01*
X203987060Y-102176100D01*
X204081023Y-102176100D01*
X204211941Y-102137658D01*
X204326726Y-102063890D01*
X204416079Y-101960772D01*
X204472761Y-101836657D01*
X204492179Y-101701600D01*
X204472761Y-101566543D01*
X204416079Y-101442428D01*
X204365203Y-101383714D01*
X204336178Y-101320158D01*
X204334916Y-101302511D01*
X204334916Y-101142475D01*
X204354601Y-101075436D01*
X204407405Y-101029681D01*
X204476563Y-101019737D01*
X204540119Y-101048762D01*
G37*
G04 #@! TD.AperFunction*
G04 #@! TA.AperFunction,Conductor*
G36*
X181038423Y-91102185D02*
G01*
X181084178Y-91154989D01*
X181094122Y-91224147D01*
X181065097Y-91287703D01*
X181059065Y-91294181D01*
X178449587Y-93903658D01*
X178388264Y-93937143D01*
X178318572Y-93932159D01*
X178262639Y-93890287D01*
X178238222Y-93824823D01*
X178249707Y-93763182D01*
X178292074Y-93673149D01*
X178322649Y-93512872D01*
X178312403Y-93350027D01*
X178261982Y-93194846D01*
X178174552Y-93057080D01*
X178055609Y-92945384D01*
X178055606Y-92945382D01*
X178055603Y-92945380D01*
X177912626Y-92866778D01*
X177754587Y-92826200D01*
X177754584Y-92826200D01*
X177632368Y-92826200D01*
X177632358Y-92826200D01*
X177511120Y-92841517D01*
X177511118Y-92841517D01*
X177359412Y-92901582D01*
X177359403Y-92901587D01*
X177227407Y-92997487D01*
X177227405Y-92997490D01*
X177123401Y-93123210D01*
X177123399Y-93123213D01*
X177089694Y-93194841D01*
X177053925Y-93270853D01*
X177038822Y-93350025D01*
X177023351Y-93431128D01*
X177023351Y-93431130D01*
X177023351Y-93431131D01*
X177033597Y-93593974D01*
X177084018Y-93749154D01*
X177084020Y-93749158D01*
X177171446Y-93886918D01*
X177171447Y-93886919D01*
X177171448Y-93886920D01*
X177234906Y-93946512D01*
X177282556Y-93991258D01*
X177317951Y-94051500D01*
X177315157Y-94121313D01*
X177275063Y-94178534D01*
X177210398Y-94204995D01*
X177197672Y-94205650D01*
X176111552Y-94205650D01*
X176044513Y-94185965D01*
X175998758Y-94133161D01*
X175988814Y-94064003D01*
X176017839Y-94000447D01*
X176038667Y-93981332D01*
X176086591Y-93946512D01*
X176086590Y-93946512D01*
X176086594Y-93946510D01*
X176190601Y-93820787D01*
X176260074Y-93673149D01*
X176290649Y-93512872D01*
X176280403Y-93350027D01*
X176229982Y-93194846D01*
X176142552Y-93057080D01*
X176023609Y-92945384D01*
X176023606Y-92945382D01*
X176023603Y-92945380D01*
X175880626Y-92866778D01*
X175722587Y-92826200D01*
X175722584Y-92826200D01*
X175600368Y-92826200D01*
X175600358Y-92826200D01*
X175479120Y-92841517D01*
X175479118Y-92841517D01*
X175327412Y-92901582D01*
X175327403Y-92901587D01*
X175195407Y-92997487D01*
X175195405Y-92997490D01*
X175091401Y-93123210D01*
X175091399Y-93123213D01*
X175057694Y-93194841D01*
X175021925Y-93270853D01*
X175006822Y-93350025D01*
X174991351Y-93431128D01*
X174991351Y-93431130D01*
X174991351Y-93431131D01*
X175001597Y-93593974D01*
X175052018Y-93749154D01*
X175052020Y-93749158D01*
X175139446Y-93886918D01*
X175139447Y-93886919D01*
X175139448Y-93886920D01*
X175258391Y-93998616D01*
X175258394Y-93998618D01*
X175258396Y-93998619D01*
X175401373Y-94077221D01*
X175401375Y-94077221D01*
X175401376Y-94077222D01*
X175559416Y-94117800D01*
X175559420Y-94117800D01*
X175673246Y-94117800D01*
X175740285Y-94137485D01*
X175786040Y-94190289D01*
X175795984Y-94259447D01*
X175766959Y-94323003D01*
X175760927Y-94329481D01*
X175097221Y-94993187D01*
X175035898Y-95026672D01*
X175009540Y-95029506D01*
X174937777Y-95029506D01*
X174806859Y-95067948D01*
X174806852Y-95067951D01*
X174692078Y-95141712D01*
X174692071Y-95141718D01*
X174612212Y-95233880D01*
X174553434Y-95271654D01*
X174483564Y-95271654D01*
X174424787Y-95233879D01*
X174395762Y-95170323D01*
X174394500Y-95152677D01*
X174394500Y-92112501D01*
X174414185Y-92045462D01*
X174430819Y-92024820D01*
X175336820Y-91118819D01*
X175398143Y-91085334D01*
X175424501Y-91082500D01*
X180971384Y-91082500D01*
X181038423Y-91102185D01*
G37*
G04 #@! TD.AperFunction*
G04 #@! TA.AperFunction,Conductor*
G36*
X200367276Y-61130185D02*
G01*
X200413031Y-61182989D01*
X200422975Y-61252147D01*
X200393950Y-61315703D01*
X200387918Y-61322181D01*
X199732796Y-61977302D01*
X199726315Y-61982943D01*
X199716833Y-61990103D01*
X199685171Y-62024834D01*
X199683197Y-62026901D01*
X199669680Y-62040419D01*
X199669679Y-62040421D01*
X199668223Y-62042546D01*
X199662897Y-62049268D01*
X199642409Y-62071742D01*
X199642407Y-62071746D01*
X199640031Y-62077879D01*
X199626712Y-62103147D01*
X199622998Y-62108569D01*
X199622995Y-62108575D01*
X199616029Y-62138187D01*
X199613488Y-62146394D01*
X199602500Y-62174759D01*
X199602500Y-62181331D01*
X199599206Y-62209721D01*
X199597702Y-62216113D01*
X199597702Y-62216117D01*
X199601905Y-62246245D01*
X199602500Y-62254821D01*
X199602500Y-65894391D01*
X199601905Y-65902965D01*
X199600264Y-65914728D01*
X199602434Y-65961672D01*
X199602500Y-65964535D01*
X199602500Y-65983652D01*
X199602970Y-65986165D01*
X199603960Y-65994698D01*
X199605365Y-66025086D01*
X199605367Y-66025093D01*
X199608018Y-66031096D01*
X199616472Y-66058394D01*
X199617680Y-66064858D01*
X199617681Y-66064860D01*
X199633695Y-66090724D01*
X199637702Y-66098327D01*
X199649989Y-66126152D01*
X199649990Y-66126154D01*
X199654633Y-66130797D01*
X199672377Y-66153198D01*
X199675839Y-66158789D01*
X199700119Y-66177124D01*
X199706597Y-66182761D01*
X201121336Y-67597500D01*
X202328426Y-68804590D01*
X202361911Y-68865913D01*
X202364745Y-68892271D01*
X202364745Y-86725992D01*
X202345060Y-86793031D01*
X202328426Y-86813673D01*
X201540205Y-87601894D01*
X201478882Y-87635379D01*
X201409190Y-87630395D01*
X201353257Y-87588523D01*
X201328840Y-87523059D01*
X201329785Y-87496573D01*
X201345511Y-87387200D01*
X201326093Y-87252143D01*
X201269411Y-87128028D01*
X201180058Y-87024910D01*
X201180057Y-87024909D01*
X201180056Y-87024908D01*
X201180053Y-87024906D01*
X201065279Y-86951145D01*
X201065275Y-86951143D01*
X201065273Y-86951142D01*
X200934355Y-86912700D01*
X200797909Y-86912700D01*
X200666991Y-86951142D01*
X200666984Y-86951145D01*
X200552210Y-87024906D01*
X200552207Y-87024908D01*
X200462854Y-87128026D01*
X200462851Y-87128031D01*
X200406170Y-87252143D01*
X200398838Y-87303146D01*
X200369813Y-87366702D01*
X200311036Y-87404477D01*
X200276100Y-87409500D01*
X200182400Y-87409500D01*
X200051482Y-87447942D01*
X200051475Y-87447945D01*
X199936701Y-87521705D01*
X199936696Y-87521710D01*
X199926804Y-87533127D01*
X199916946Y-87544503D01*
X199858170Y-87582277D01*
X199823234Y-87587300D01*
X199612785Y-87587300D01*
X199604209Y-87586705D01*
X199592385Y-87585055D01*
X199592384Y-87585055D01*
X199545251Y-87587234D01*
X199542388Y-87587300D01*
X199523193Y-87587300D01*
X199523190Y-87587300D01*
X199523181Y-87587301D01*
X199520634Y-87587777D01*
X199512110Y-87588765D01*
X199481578Y-87590177D01*
X199475478Y-87592871D01*
X199448188Y-87601321D01*
X199441646Y-87602543D01*
X199415660Y-87618632D01*
X199408060Y-87622638D01*
X199380102Y-87634983D01*
X199375390Y-87639695D01*
X199353000Y-87657430D01*
X199347340Y-87660934D01*
X199347334Y-87660939D01*
X199328916Y-87685328D01*
X199323275Y-87691811D01*
X197212181Y-89802905D01*
X197150858Y-89836390D01*
X197081166Y-89831406D01*
X197025233Y-89789534D01*
X197000816Y-89724070D01*
X197000500Y-89715224D01*
X197000500Y-89367674D01*
X197000499Y-89367672D01*
X196998408Y-89364050D01*
X196986017Y-89334137D01*
X196984935Y-89330096D01*
X196984930Y-89330091D01*
X196920845Y-89266004D01*
X196920830Y-89265991D01*
X196165903Y-88511064D01*
X196161859Y-88509981D01*
X196131950Y-88497591D01*
X196128327Y-88495499D01*
X196033241Y-88495499D01*
X196033233Y-88495500D01*
X179805931Y-88495500D01*
X179738892Y-88475815D01*
X179693137Y-88423011D01*
X179683193Y-88353853D01*
X179712218Y-88290297D01*
X179770996Y-88252523D01*
X179776256Y-88251103D01*
X179778726Y-88250494D01*
X179810365Y-88242696D01*
X179950240Y-88169283D01*
X180068483Y-88064530D01*
X180158220Y-87934523D01*
X180214237Y-87786818D01*
X180233278Y-87630000D01*
X180228382Y-87589673D01*
X180214237Y-87473181D01*
X180181628Y-87387199D01*
X180158220Y-87325477D01*
X180068483Y-87195470D01*
X179951674Y-87091987D01*
X179950237Y-87090714D01*
X179918952Y-87074295D01*
X179868739Y-87025710D01*
X179852765Y-86957691D01*
X179876101Y-86891834D01*
X179931337Y-86849047D01*
X179976575Y-86840499D01*
X181857718Y-86840499D01*
X181922035Y-86827707D01*
X181994972Y-86778972D01*
X182043707Y-86706035D01*
X182046951Y-86689729D01*
X182056499Y-86641722D01*
X182056500Y-86641719D01*
X182056499Y-86298282D01*
X182043707Y-86233965D01*
X182043705Y-86233962D01*
X182039033Y-86222682D01*
X182041591Y-86221622D01*
X182026120Y-86172215D01*
X182040960Y-86118117D01*
X182039033Y-86117319D01*
X182043708Y-86106032D01*
X182056499Y-86041722D01*
X182056500Y-86041719D01*
X182056499Y-85698282D01*
X182043707Y-85633965D01*
X182043705Y-85633962D01*
X182039033Y-85622682D01*
X182041591Y-85621622D01*
X182026120Y-85572215D01*
X182040960Y-85518117D01*
X182039033Y-85517319D01*
X182043708Y-85506032D01*
X182056499Y-85441722D01*
X182056500Y-85441719D01*
X182056499Y-85098282D01*
X182043707Y-85033965D01*
X182043705Y-85033962D01*
X182039033Y-85022682D01*
X182041591Y-85021622D01*
X182026120Y-84972215D01*
X182040960Y-84918117D01*
X182039033Y-84917319D01*
X182043708Y-84906032D01*
X182056499Y-84841722D01*
X182056500Y-84841719D01*
X182056499Y-84498282D01*
X182043707Y-84433965D01*
X182043705Y-84433962D01*
X182039032Y-84422678D01*
X182041590Y-84421618D01*
X182026120Y-84372219D01*
X182040959Y-84318114D01*
X182039034Y-84317317D01*
X182043706Y-84306037D01*
X182043706Y-84306036D01*
X182043707Y-84306035D01*
X182056500Y-84241719D01*
X182056499Y-83898282D01*
X182043707Y-83833965D01*
X182043705Y-83833962D01*
X182039033Y-83822682D01*
X182041591Y-83821622D01*
X182026120Y-83772215D01*
X182040960Y-83718117D01*
X182039033Y-83717319D01*
X182043708Y-83706032D01*
X182056499Y-83641722D01*
X182056500Y-83641719D01*
X182056499Y-83298282D01*
X182043707Y-83233965D01*
X182043705Y-83233962D01*
X182039033Y-83222682D01*
X182041591Y-83221622D01*
X182026120Y-83172215D01*
X182040960Y-83118117D01*
X182039033Y-83117319D01*
X182043708Y-83106032D01*
X182056499Y-83041722D01*
X182056500Y-83041719D01*
X182056499Y-82698282D01*
X182043707Y-82633965D01*
X182043705Y-82633962D01*
X182039033Y-82622682D01*
X182041591Y-82621622D01*
X182026120Y-82572215D01*
X182040960Y-82518117D01*
X182039033Y-82517319D01*
X182043708Y-82506032D01*
X182056499Y-82441722D01*
X182056500Y-82441719D01*
X182056499Y-82098282D01*
X182043707Y-82033965D01*
X182043705Y-82033962D01*
X182039032Y-82022678D01*
X182041590Y-82021618D01*
X182026120Y-81972219D01*
X182040959Y-81918114D01*
X182039034Y-81917317D01*
X182043706Y-81906037D01*
X182043706Y-81906036D01*
X182043707Y-81906035D01*
X182056500Y-81841719D01*
X182056499Y-81498282D01*
X182043707Y-81433965D01*
X182043705Y-81433962D01*
X182039033Y-81422682D01*
X182041591Y-81421622D01*
X182026120Y-81372215D01*
X182040960Y-81318117D01*
X182039033Y-81317319D01*
X182043708Y-81306032D01*
X182056499Y-81241722D01*
X182056500Y-81241719D01*
X182056499Y-80898282D01*
X182043707Y-80833965D01*
X182043705Y-80833962D01*
X182039033Y-80822682D01*
X182041591Y-80821622D01*
X182026120Y-80772215D01*
X182040960Y-80718117D01*
X182039033Y-80717319D01*
X182043708Y-80706032D01*
X182056499Y-80641722D01*
X182056500Y-80641719D01*
X182056499Y-80298282D01*
X182043707Y-80233965D01*
X182043705Y-80233962D01*
X182039033Y-80222682D01*
X182041591Y-80221622D01*
X182026120Y-80172215D01*
X182040960Y-80118117D01*
X182039033Y-80117319D01*
X182043708Y-80106032D01*
X182056499Y-80041722D01*
X182056500Y-80041719D01*
X182056499Y-79698282D01*
X182043707Y-79633965D01*
X182043705Y-79633962D01*
X182039032Y-79622678D01*
X182041590Y-79621618D01*
X182026120Y-79572219D01*
X182040959Y-79518114D01*
X182039034Y-79517317D01*
X182043706Y-79506037D01*
X182043706Y-79506036D01*
X182043707Y-79506035D01*
X182056500Y-79441719D01*
X182056499Y-79098282D01*
X182043707Y-79033965D01*
X182043705Y-79033962D01*
X182039033Y-79022682D01*
X182041591Y-79021622D01*
X182026120Y-78972215D01*
X182040960Y-78918117D01*
X182039033Y-78917319D01*
X182043708Y-78906032D01*
X182056499Y-78841722D01*
X182056500Y-78841719D01*
X182056499Y-78498282D01*
X182043707Y-78433965D01*
X182043705Y-78433962D01*
X182039033Y-78422682D01*
X182041591Y-78421622D01*
X182026120Y-78372215D01*
X182040960Y-78318117D01*
X182039033Y-78317319D01*
X182043708Y-78306032D01*
X182055521Y-78246640D01*
X182056500Y-78241719D01*
X182056499Y-77898282D01*
X182043707Y-77833965D01*
X182043705Y-77833962D01*
X182039033Y-77822682D01*
X182041591Y-77821622D01*
X182026120Y-77772215D01*
X182040960Y-77718117D01*
X182039033Y-77717319D01*
X182043708Y-77706032D01*
X182056499Y-77641722D01*
X182056500Y-77641719D01*
X182056499Y-77298282D01*
X182043707Y-77233965D01*
X182043705Y-77233962D01*
X182039032Y-77222678D01*
X182041590Y-77221618D01*
X182026120Y-77172219D01*
X182040959Y-77118114D01*
X182039034Y-77117317D01*
X182043706Y-77106037D01*
X182043706Y-77106036D01*
X182043707Y-77106035D01*
X182056500Y-77041719D01*
X182056499Y-76728499D01*
X182076183Y-76661461D01*
X182128987Y-76615706D01*
X182180499Y-76604500D01*
X196128326Y-76604500D01*
X196128327Y-76604500D01*
X196131943Y-76602411D01*
X196161862Y-76590017D01*
X196165904Y-76588935D01*
X196222935Y-76531905D01*
X196222935Y-76531904D01*
X196240371Y-76514469D01*
X196240375Y-76514462D01*
X196970430Y-75784409D01*
X196970430Y-75784408D01*
X196984935Y-75769904D01*
X196986018Y-75765860D01*
X196998408Y-75735949D01*
X197000500Y-75732327D01*
X197000501Y-75651674D01*
X197000500Y-75651672D01*
X197000500Y-62089700D01*
X197020185Y-62022661D01*
X197036814Y-62002024D01*
X197892020Y-61146819D01*
X197953343Y-61113334D01*
X197979701Y-61110500D01*
X200300237Y-61110500D01*
X200367276Y-61130185D01*
G37*
G04 #@! TD.AperFunction*
G04 #@! TA.AperFunction,Conductor*
G36*
X225759338Y-61130185D02*
G01*
X225779980Y-61146819D01*
X226127181Y-61494020D01*
X226160666Y-61555343D01*
X226163500Y-61581701D01*
X226163500Y-74816298D01*
X226143815Y-74883337D01*
X226127181Y-74903979D01*
X225779980Y-75251181D01*
X225718657Y-75284666D01*
X225692299Y-75287500D01*
X213319672Y-75287500D01*
X213316043Y-75289595D01*
X213286147Y-75301979D01*
X213282097Y-75303064D01*
X213282095Y-75303065D01*
X213282096Y-75303065D01*
X213225065Y-75360095D01*
X213225064Y-75360096D01*
X211250096Y-77335065D01*
X211193064Y-77392096D01*
X211193065Y-77392096D01*
X211191980Y-77396145D01*
X211179596Y-77426042D01*
X211177500Y-77429671D01*
X211177499Y-77429674D01*
X211177499Y-86737383D01*
X211157814Y-86804422D01*
X211105010Y-86850177D01*
X211035852Y-86860121D01*
X210972296Y-86831096D01*
X210965818Y-86825064D01*
X210793996Y-86653242D01*
X210760511Y-86591919D01*
X210765495Y-86522227D01*
X210768872Y-86514074D01*
X210782263Y-86484755D01*
X210801681Y-86349698D01*
X210782263Y-86214641D01*
X210725581Y-86090526D01*
X210638987Y-85990592D01*
X210609961Y-85927037D01*
X210608699Y-85909401D01*
X210608699Y-85152101D01*
X210609295Y-85143519D01*
X210610945Y-85131700D01*
X210608766Y-85084566D01*
X210608700Y-85081702D01*
X210608700Y-85062508D01*
X210608225Y-85059969D01*
X210607233Y-85051423D01*
X210606680Y-85039458D01*
X210605822Y-85020893D01*
X210603132Y-85014801D01*
X210594677Y-84987497D01*
X210593456Y-84980963D01*
X210577366Y-84954976D01*
X210573361Y-84947379D01*
X210561016Y-84919419D01*
X210556310Y-84914713D01*
X210538565Y-84892309D01*
X210535062Y-84886652D01*
X210510670Y-84868232D01*
X210504192Y-84862595D01*
X210137016Y-84495418D01*
X210103533Y-84434098D01*
X210100700Y-84407749D01*
X210100700Y-75745250D01*
X210101295Y-75736683D01*
X210101733Y-75733541D01*
X210101736Y-75733533D01*
X210100766Y-75712547D01*
X210100700Y-75709684D01*
X210100700Y-73151987D01*
X218976621Y-73151987D01*
X218996038Y-73287044D01*
X218996044Y-73287057D01*
X219052721Y-73411160D01*
X219068110Y-73428919D01*
X219142075Y-73514279D01*
X219142078Y-73514281D01*
X219256852Y-73588042D01*
X219256854Y-73588042D01*
X219256859Y-73588046D01*
X219387777Y-73626488D01*
X219524223Y-73626488D01*
X219655141Y-73588046D01*
X219769926Y-73514278D01*
X219859279Y-73411160D01*
X219915961Y-73287045D01*
X219935379Y-73151988D01*
X219915961Y-73016931D01*
X219915957Y-73016923D01*
X219915472Y-73015268D01*
X219915471Y-73013528D01*
X219914699Y-73008153D01*
X219915471Y-73008041D01*
X219915469Y-72945398D01*
X219953241Y-72886619D01*
X220016796Y-72857591D01*
X220036189Y-72857160D01*
X220036189Y-72856500D01*
X220042280Y-72856499D01*
X220042281Y-72856500D01*
X220147504Y-72856499D01*
X220214543Y-72876183D01*
X220260298Y-72928987D01*
X220270242Y-72998145D01*
X220266484Y-73015425D01*
X220266039Y-73016939D01*
X220246621Y-73152000D01*
X220266038Y-73287056D01*
X220322716Y-73411161D01*
X220322721Y-73411172D01*
X220412065Y-73514279D01*
X220412075Y-73514291D01*
X220412078Y-73514293D01*
X220526852Y-73588054D01*
X220526854Y-73588054D01*
X220526859Y-73588058D01*
X220657777Y-73626500D01*
X220794223Y-73626500D01*
X220925141Y-73588058D01*
X221039926Y-73514290D01*
X221129279Y-73411172D01*
X221185961Y-73287057D01*
X221205379Y-73152000D01*
X221185961Y-73016943D01*
X221129279Y-72892828D01*
X221039926Y-72789710D01*
X221039925Y-72789709D01*
X221039924Y-72789708D01*
X221039921Y-72789706D01*
X221019047Y-72776291D01*
X220983649Y-72735439D01*
X220981513Y-72736903D01*
X220975018Y-72727422D01*
X220975017Y-72727420D01*
X220970312Y-72722715D01*
X220952566Y-72700312D01*
X220949062Y-72694652D01*
X220924670Y-72676232D01*
X220918185Y-72670588D01*
X220720818Y-72473220D01*
X220687333Y-72411897D01*
X220684499Y-72385539D01*
X220684499Y-72214282D01*
X220669324Y-72137986D01*
X220672945Y-72137265D01*
X220667750Y-72089000D01*
X220669556Y-72082848D01*
X220684499Y-72007722D01*
X220684500Y-72007719D01*
X220684499Y-71624222D01*
X220704183Y-71557184D01*
X220741460Y-71519907D01*
X220760613Y-71507599D01*
X220849966Y-71404481D01*
X220906648Y-71280366D01*
X220926066Y-71145309D01*
X220906648Y-71010252D01*
X220849966Y-70886137D01*
X220760613Y-70783019D01*
X220760612Y-70783018D01*
X220760611Y-70783017D01*
X220760608Y-70783015D01*
X220645834Y-70709254D01*
X220645830Y-70709252D01*
X220645828Y-70709251D01*
X220514910Y-70670809D01*
X220378464Y-70670809D01*
X220247546Y-70709251D01*
X220247539Y-70709254D01*
X220132765Y-70783015D01*
X220132758Y-70783021D01*
X220055500Y-70872181D01*
X219996722Y-70909955D01*
X219926852Y-70909955D01*
X219868074Y-70872180D01*
X219861465Y-70863351D01*
X219791858Y-70783021D01*
X219769926Y-70757710D01*
X219769925Y-70757709D01*
X219769924Y-70757708D01*
X219769921Y-70757706D01*
X219655147Y-70683945D01*
X219655143Y-70683943D01*
X219655141Y-70683942D01*
X219524223Y-70645500D01*
X219387777Y-70645500D01*
X219256859Y-70683942D01*
X219256852Y-70683945D01*
X219142078Y-70757706D01*
X219142075Y-70757708D01*
X219052722Y-70860826D01*
X219052719Y-70860831D01*
X218996038Y-70984943D01*
X218976621Y-71120000D01*
X218996038Y-71255056D01*
X219052719Y-71379168D01*
X219052722Y-71379173D01*
X219129013Y-71467217D01*
X219158038Y-71530773D01*
X219159300Y-71548420D01*
X219159300Y-71565898D01*
X219158705Y-71574474D01*
X219157055Y-71586298D01*
X219159234Y-71633432D01*
X219159300Y-71636295D01*
X219159300Y-71655488D01*
X219159301Y-71655501D01*
X219159776Y-71658042D01*
X219160765Y-71666572D01*
X219162178Y-71697108D01*
X219164868Y-71703201D01*
X219173321Y-71730496D01*
X219174543Y-71737036D01*
X219174927Y-71737655D01*
X219175323Y-71739049D01*
X219178695Y-71747752D01*
X219177888Y-71748064D01*
X219193500Y-71802932D01*
X219193500Y-72007716D01*
X219208676Y-72084014D01*
X219205057Y-72084733D01*
X219210242Y-72133037D01*
X219208437Y-72139183D01*
X219193500Y-72214276D01*
X219193500Y-72415076D01*
X219182935Y-72465161D01*
X219179879Y-72472081D01*
X219172884Y-72501822D01*
X219170342Y-72510029D01*
X219159300Y-72538535D01*
X219159300Y-72545194D01*
X219156006Y-72573583D01*
X219154483Y-72580055D01*
X219154483Y-72580060D01*
X219158705Y-72610324D01*
X219159300Y-72618900D01*
X219159300Y-72723568D01*
X219139615Y-72790607D01*
X219129013Y-72804771D01*
X219052722Y-72892814D01*
X219052719Y-72892819D01*
X218996038Y-73016931D01*
X218976621Y-73151987D01*
X210100700Y-73151987D01*
X210100700Y-69508700D01*
X210120385Y-69441661D01*
X210173189Y-69395906D01*
X210224700Y-69384700D01*
X217361899Y-69384700D01*
X217370475Y-69385295D01*
X217382293Y-69386943D01*
X217382299Y-69386945D01*
X217422803Y-69385072D01*
X217429433Y-69384766D01*
X217432296Y-69384700D01*
X217451488Y-69384700D01*
X217451491Y-69384700D01*
X217454038Y-69384223D01*
X217462573Y-69383233D01*
X217493106Y-69381822D01*
X217499197Y-69379132D01*
X217526499Y-69370677D01*
X217533037Y-69369456D01*
X217559022Y-69353365D01*
X217566610Y-69349366D01*
X217594580Y-69337017D01*
X217599280Y-69332316D01*
X217621689Y-69314564D01*
X217627348Y-69311062D01*
X217645770Y-69286665D01*
X217651393Y-69280202D01*
X218351889Y-68579706D01*
X218358372Y-68574066D01*
X218367896Y-68566874D01*
X218367899Y-68566873D01*
X218399694Y-68531993D01*
X218401642Y-68529953D01*
X218415238Y-68516359D01*
X218416705Y-68514216D01*
X218422020Y-68507503D01*
X218442629Y-68484898D01*
X218442629Y-68484896D01*
X218450374Y-68476402D01*
X218450882Y-68476865D01*
X218480419Y-68446825D01*
X218499926Y-68434290D01*
X218589279Y-68331172D01*
X218645961Y-68207057D01*
X218665379Y-68072000D01*
X218645961Y-67936943D01*
X218589279Y-67812828D01*
X218499926Y-67709710D01*
X218499925Y-67709709D01*
X218499924Y-67709708D01*
X218499921Y-67709706D01*
X218385147Y-67635945D01*
X218385143Y-67635943D01*
X218385141Y-67635942D01*
X218254223Y-67597500D01*
X218117777Y-67597500D01*
X217986859Y-67635942D01*
X217986852Y-67635945D01*
X217872078Y-67709706D01*
X217872075Y-67709708D01*
X217782722Y-67812826D01*
X217782719Y-67812831D01*
X217726038Y-67936943D01*
X217706621Y-68072000D01*
X217726038Y-68207056D01*
X217726039Y-68207057D01*
X217740218Y-68238105D01*
X217750161Y-68307264D01*
X217721136Y-68370819D01*
X217715104Y-68377297D01*
X217337421Y-68754981D01*
X217276098Y-68788466D01*
X217249740Y-68791300D01*
X209978259Y-68791300D01*
X209911220Y-68771615D01*
X209890578Y-68754981D01*
X206069909Y-64934311D01*
X206064264Y-64927824D01*
X206057074Y-64918302D01*
X206038594Y-64901455D01*
X206022207Y-64886516D01*
X206020144Y-64884546D01*
X206006561Y-64870963D01*
X206006560Y-64870962D01*
X206004413Y-64869491D01*
X205997688Y-64864164D01*
X205975098Y-64843571D01*
X205975096Y-64843570D01*
X205968886Y-64841164D01*
X205943602Y-64827836D01*
X205938120Y-64824080D01*
X205938115Y-64824078D01*
X205908368Y-64817081D01*
X205900163Y-64814540D01*
X205871663Y-64803500D01*
X205871662Y-64803500D01*
X205865006Y-64803500D01*
X205836615Y-64800206D01*
X205830140Y-64798683D01*
X205799872Y-64802905D01*
X205791299Y-64803500D01*
X204941180Y-64803500D01*
X204874141Y-64783816D01*
X204864079Y-64777349D01*
X204781951Y-64724569D01*
X204651033Y-64686127D01*
X204514587Y-64686127D01*
X204383669Y-64724569D01*
X204383662Y-64724572D01*
X204268888Y-64798333D01*
X204268885Y-64798335D01*
X204179532Y-64901453D01*
X204179529Y-64901458D01*
X204122848Y-65025570D01*
X204103431Y-65160626D01*
X204122848Y-65295683D01*
X204169073Y-65396900D01*
X204179531Y-65419799D01*
X204268882Y-65522914D01*
X204268885Y-65522918D01*
X204268888Y-65522920D01*
X204383662Y-65596681D01*
X204383664Y-65596681D01*
X204383669Y-65596685D01*
X204514587Y-65635127D01*
X204651033Y-65635127D01*
X204781951Y-65596685D01*
X204896736Y-65522917D01*
X204926383Y-65488702D01*
X204968848Y-65439697D01*
X205027626Y-65401923D01*
X205062560Y-65396900D01*
X205641941Y-65396900D01*
X205708980Y-65416585D01*
X205729622Y-65433219D01*
X209470981Y-69174578D01*
X209504466Y-69235901D01*
X209507300Y-69262259D01*
X209507300Y-74678037D01*
X209487615Y-74745076D01*
X209434811Y-74790831D01*
X209365653Y-74800775D01*
X209302097Y-74771750D01*
X209295619Y-74765718D01*
X208949995Y-74420095D01*
X208675558Y-74145658D01*
X208669922Y-74139181D01*
X208662763Y-74129701D01*
X208628030Y-74098037D01*
X208625979Y-74096079D01*
X208612452Y-74082552D01*
X208610339Y-74081105D01*
X208603607Y-74075773D01*
X208581121Y-74055274D01*
X208581120Y-74055273D01*
X208574989Y-74052898D01*
X208549704Y-74039569D01*
X208544294Y-74035863D01*
X208544293Y-74035862D01*
X208544291Y-74035861D01*
X208529342Y-74032344D01*
X208514680Y-74028896D01*
X208506470Y-74026354D01*
X208478104Y-74015365D01*
X208478102Y-74015365D01*
X208471533Y-74015365D01*
X208443143Y-74012071D01*
X208436748Y-74010567D01*
X208406616Y-74014770D01*
X208398043Y-74015365D01*
X207290272Y-74015365D01*
X207223233Y-73995680D01*
X207196561Y-73972570D01*
X207178415Y-73951629D01*
X207178413Y-73951628D01*
X207064596Y-73878481D01*
X206934784Y-73840365D01*
X206934783Y-73840365D01*
X206799487Y-73840365D01*
X206799486Y-73840365D01*
X206669673Y-73878481D01*
X206555856Y-73951628D01*
X206555855Y-73951629D01*
X206502960Y-74012672D01*
X206444181Y-74050446D01*
X206374312Y-74050445D01*
X206321567Y-74019149D01*
X206142783Y-73840365D01*
X205819016Y-73516597D01*
X205785533Y-73455277D01*
X205782700Y-73428928D01*
X205782700Y-72310258D01*
X205802385Y-72243218D01*
X205819014Y-72222582D01*
X207429889Y-70611706D01*
X207436372Y-70606066D01*
X207445896Y-70598874D01*
X207445899Y-70598873D01*
X207477694Y-70563993D01*
X207479642Y-70561953D01*
X207493238Y-70548359D01*
X207494705Y-70546216D01*
X207500020Y-70539503D01*
X207520629Y-70516898D01*
X207523035Y-70510685D01*
X207536361Y-70485403D01*
X207540120Y-70479918D01*
X207547117Y-70450167D01*
X207549653Y-70441976D01*
X207560700Y-70413463D01*
X207560700Y-70406809D01*
X207563994Y-70378417D01*
X207565518Y-70371940D01*
X207561295Y-70341667D01*
X207560700Y-70333092D01*
X207560700Y-69201521D01*
X207561296Y-69192942D01*
X207562943Y-69181129D01*
X207562945Y-69181125D01*
X207560766Y-69133989D01*
X207560700Y-69131126D01*
X207560700Y-69111932D01*
X207560225Y-69109393D01*
X207559233Y-69100847D01*
X207559220Y-69100577D01*
X207557822Y-69070317D01*
X207555132Y-69064225D01*
X207546677Y-69036921D01*
X207545456Y-69030387D01*
X207529366Y-69004400D01*
X207525361Y-68996803D01*
X207513016Y-68968843D01*
X207508310Y-68964137D01*
X207490565Y-68941733D01*
X207487062Y-68936076D01*
X207462670Y-68917656D01*
X207456192Y-68912019D01*
X206450280Y-67906106D01*
X206444644Y-67899628D01*
X206437453Y-67890105D01*
X206402592Y-67858326D01*
X206400540Y-67856367D01*
X206386936Y-67842762D01*
X206384791Y-67841292D01*
X206378057Y-67835958D01*
X206355474Y-67815371D01*
X206355472Y-67815370D01*
X206349262Y-67812964D01*
X206323978Y-67799636D01*
X206318496Y-67795880D01*
X206318491Y-67795878D01*
X206288744Y-67788881D01*
X206280539Y-67786340D01*
X206252039Y-67775300D01*
X206252038Y-67775300D01*
X206245382Y-67775300D01*
X206216991Y-67772006D01*
X206210516Y-67770483D01*
X206180248Y-67774705D01*
X206171675Y-67775300D01*
X205651732Y-67775300D01*
X205584693Y-67755615D01*
X205564051Y-67738981D01*
X201755019Y-63929948D01*
X201721534Y-63868625D01*
X201718700Y-63842267D01*
X201718700Y-62912420D01*
X201738385Y-62845381D01*
X201748987Y-62831217D01*
X201752964Y-62826626D01*
X201825279Y-62743172D01*
X201881961Y-62619057D01*
X201891042Y-62555895D01*
X201920067Y-62492340D01*
X201978844Y-62454565D01*
X201996144Y-62450803D01*
X201998211Y-62450505D01*
X201998218Y-62450505D01*
X202129136Y-62412063D01*
X202243921Y-62338295D01*
X202333274Y-62235177D01*
X202389956Y-62111062D01*
X202409374Y-61976005D01*
X202399186Y-61905145D01*
X202409130Y-61835989D01*
X202454884Y-61783185D01*
X202521924Y-61763500D01*
X202772238Y-61763500D01*
X202839277Y-61783185D01*
X202859919Y-61799819D01*
X204347815Y-63287715D01*
X204381300Y-63349038D01*
X204376316Y-63418730D01*
X204353847Y-63456599D01*
X204320722Y-63494826D01*
X204320719Y-63494831D01*
X204264038Y-63618943D01*
X204244621Y-63754000D01*
X204264038Y-63889056D01*
X204320719Y-64013168D01*
X204320722Y-64013173D01*
X204410075Y-64116291D01*
X204410078Y-64116293D01*
X204524852Y-64190054D01*
X204524854Y-64190054D01*
X204524859Y-64190058D01*
X204655777Y-64228500D01*
X204792223Y-64228500D01*
X204923141Y-64190058D01*
X205037926Y-64116290D01*
X205127279Y-64013172D01*
X205183961Y-63889057D01*
X205203379Y-63754000D01*
X205183961Y-63618943D01*
X205127279Y-63494828D01*
X205049787Y-63405398D01*
X205020762Y-63341842D01*
X205019500Y-63324195D01*
X205019500Y-63307869D01*
X205020095Y-63299292D01*
X205021734Y-63287538D01*
X205021736Y-63287533D01*
X205019566Y-63240590D01*
X205019500Y-63237727D01*
X205019500Y-63218616D01*
X205019030Y-63216104D01*
X205018038Y-63207556D01*
X205017996Y-63206655D01*
X205016634Y-63177174D01*
X205013981Y-63171166D01*
X205005526Y-63143861D01*
X205004319Y-63137404D01*
X204988302Y-63111536D01*
X204984293Y-63103930D01*
X204972010Y-63076110D01*
X204967366Y-63071466D01*
X204949619Y-63049061D01*
X204946159Y-63043473D01*
X204941409Y-63039886D01*
X204921874Y-63025134D01*
X204915404Y-63019504D01*
X203218080Y-61322181D01*
X203184596Y-61260858D01*
X203189580Y-61191166D01*
X203231452Y-61135233D01*
X203296916Y-61110816D01*
X203305762Y-61110500D01*
X225692299Y-61110500D01*
X225759338Y-61130185D01*
G37*
G04 #@! TD.AperFunction*
G04 #@! TA.AperFunction,Conductor*
G36*
X209898138Y-85095735D02*
G01*
X209978981Y-85176578D01*
X210012466Y-85237901D01*
X210015300Y-85264259D01*
X210015300Y-85933167D01*
X209995615Y-86000206D01*
X209985012Y-86014371D01*
X209951090Y-86053518D01*
X209892311Y-86091292D01*
X209822442Y-86091291D01*
X209769697Y-86059995D01*
X209425819Y-85716117D01*
X209392334Y-85654794D01*
X209389500Y-85628436D01*
X209389500Y-85213075D01*
X209409185Y-85146036D01*
X209461989Y-85100281D01*
X209531147Y-85090337D01*
X209537907Y-85091807D01*
X209543251Y-85092576D01*
X209543253Y-85092576D01*
X209679699Y-85092576D01*
X209775522Y-85064438D01*
X209845390Y-85064438D01*
X209898138Y-85095735D01*
G37*
G04 #@! TD.AperFunction*
G04 #@! TA.AperFunction,Conductor*
G36*
X208867412Y-81752179D02*
G01*
X208896438Y-81815734D01*
X208897700Y-81833383D01*
X208897700Y-83747339D01*
X208878015Y-83814378D01*
X208861381Y-83835020D01*
X208622110Y-84074291D01*
X208615627Y-84079933D01*
X208606101Y-84087126D01*
X208574325Y-84121981D01*
X208572351Y-84124050D01*
X208558760Y-84137642D01*
X208558757Y-84137645D01*
X208557283Y-84139797D01*
X208551959Y-84146516D01*
X208531370Y-84169102D01*
X208531368Y-84169105D01*
X208528962Y-84175317D01*
X208515644Y-84200584D01*
X208511880Y-84206078D01*
X208511879Y-84206081D01*
X208504884Y-84235822D01*
X208502342Y-84244029D01*
X208491300Y-84272535D01*
X208491300Y-84279194D01*
X208488006Y-84307583D01*
X208486483Y-84314055D01*
X208486483Y-84314060D01*
X208490705Y-84344324D01*
X208491300Y-84352900D01*
X208491300Y-85344340D01*
X208471615Y-85411379D01*
X208418811Y-85457134D01*
X208349653Y-85467078D01*
X208286097Y-85438053D01*
X208279619Y-85432021D01*
X206835018Y-83987420D01*
X206801533Y-83926097D01*
X206798699Y-83899739D01*
X206798699Y-83700874D01*
X206818384Y-83633835D01*
X206871188Y-83588080D01*
X206940346Y-83578136D01*
X206989734Y-83596556D01*
X207039459Y-83628513D01*
X207170377Y-83666955D01*
X207306823Y-83666955D01*
X207437741Y-83628513D01*
X207552526Y-83554745D01*
X207641879Y-83451627D01*
X207698561Y-83327512D01*
X207717979Y-83192455D01*
X207698561Y-83057398D01*
X207641879Y-82933283D01*
X207565587Y-82845238D01*
X207536561Y-82781683D01*
X207535300Y-82764039D01*
X207535300Y-82749648D01*
X207554989Y-82682611D01*
X207571619Y-82661977D01*
X208442778Y-81790819D01*
X208504101Y-81757334D01*
X208530459Y-81754500D01*
X208602223Y-81754500D01*
X208733141Y-81716058D01*
X208733143Y-81716056D01*
X208738764Y-81714406D01*
X208808633Y-81714405D01*
X208867412Y-81752179D01*
G37*
G04 #@! TD.AperFunction*
G04 #@! TA.AperFunction,Conductor*
G36*
X208316142Y-74626050D02*
G01*
X208336784Y-74642684D01*
X209470980Y-75776880D01*
X209504465Y-75838203D01*
X209507299Y-75864561D01*
X209507299Y-78806426D01*
X209487614Y-78873465D01*
X209434810Y-78919220D01*
X209365652Y-78929164D01*
X209302096Y-78900139D01*
X209295618Y-78894107D01*
X207351619Y-76950108D01*
X207318134Y-76888785D01*
X207315300Y-76862427D01*
X207315300Y-75197876D01*
X207315896Y-75189297D01*
X207317543Y-75177484D01*
X207317545Y-75177480D01*
X207315366Y-75130345D01*
X207315300Y-75127482D01*
X207315300Y-75108293D01*
X207315300Y-75108288D01*
X207314822Y-75105734D01*
X207313833Y-75097207D01*
X207312422Y-75066673D01*
X207309732Y-75060581D01*
X207301278Y-75033281D01*
X207300056Y-75026742D01*
X207283965Y-75000754D01*
X207279963Y-74993161D01*
X207267619Y-74965202D01*
X207267615Y-74965197D01*
X207262912Y-74960494D01*
X207245166Y-74938091D01*
X207241662Y-74932431D01*
X207217270Y-74914011D01*
X207210792Y-74908374D01*
X207161876Y-74859459D01*
X207128392Y-74798136D01*
X207133376Y-74728444D01*
X207172244Y-74676523D01*
X207171712Y-74675909D01*
X207174536Y-74673461D01*
X207175248Y-74672511D01*
X207177185Y-74671166D01*
X207178410Y-74670103D01*
X207178415Y-74670101D01*
X207196560Y-74649160D01*
X207255339Y-74611387D01*
X207290272Y-74606365D01*
X208249103Y-74606365D01*
X208316142Y-74626050D01*
G37*
G04 #@! TD.AperFunction*
G04 #@! TA.AperFunction,Conductor*
G36*
X201315654Y-65002909D02*
G01*
X204878896Y-68566151D01*
X204884540Y-68572637D01*
X204891733Y-68582163D01*
X204891734Y-68582164D01*
X204891735Y-68582165D01*
X204926612Y-68613960D01*
X204928674Y-68615929D01*
X204942249Y-68629504D01*
X204944386Y-68630968D01*
X204951126Y-68636307D01*
X204956516Y-68641220D01*
X204965777Y-68649663D01*
X205002057Y-68709373D01*
X205000297Y-68779220D01*
X204961054Y-68837028D01*
X204896787Y-68864442D01*
X204847302Y-68860276D01*
X204759101Y-68834377D01*
X204759100Y-68834377D01*
X204622654Y-68834377D01*
X204491736Y-68872819D01*
X204491729Y-68872822D01*
X204376955Y-68946583D01*
X204376952Y-68946585D01*
X204287599Y-69049703D01*
X204287596Y-69049708D01*
X204230915Y-69173820D01*
X204211498Y-69308877D01*
X204211498Y-69317295D01*
X204191813Y-69384334D01*
X204175179Y-69404976D01*
X203505709Y-70074445D01*
X203499225Y-70080088D01*
X203486229Y-70089902D01*
X203420868Y-70114596D01*
X203352533Y-70100032D01*
X203302920Y-70050836D01*
X203287500Y-69990950D01*
X203287500Y-68687869D01*
X203288095Y-68679292D01*
X203289734Y-68667538D01*
X203289736Y-68667533D01*
X203287566Y-68620590D01*
X203287500Y-68617727D01*
X203287500Y-68598616D01*
X203287030Y-68596104D01*
X203286038Y-68587556D01*
X203285789Y-68582163D01*
X203284634Y-68557174D01*
X203281981Y-68551166D01*
X203273526Y-68523861D01*
X203272319Y-68517404D01*
X203256302Y-68491536D01*
X203252293Y-68483930D01*
X203240010Y-68456110D01*
X203235366Y-68451466D01*
X203217619Y-68429061D01*
X203214159Y-68423473D01*
X203209409Y-68419886D01*
X203189874Y-68405134D01*
X203183404Y-68399504D01*
X202087607Y-67303708D01*
X200991819Y-66207918D01*
X200958334Y-66146595D01*
X200955500Y-66120237D01*
X200955500Y-65701697D01*
X200975185Y-65634658D01*
X200985787Y-65620494D01*
X201006418Y-65596685D01*
X201059880Y-65534987D01*
X201116083Y-65411918D01*
X201135338Y-65278000D01*
X201116083Y-65144082D01*
X201115180Y-65142104D01*
X201114870Y-65139950D01*
X201113585Y-65135573D01*
X201114214Y-65135388D01*
X201105235Y-65072945D01*
X201134259Y-65009389D01*
X201193036Y-64971614D01*
X201262906Y-64971612D01*
X201315654Y-65002909D01*
G37*
G04 #@! TD.AperFunction*
G04 #@! TA.AperFunction,Conductor*
G36*
X200491586Y-62156826D02*
G01*
X200547520Y-62198697D01*
X200571937Y-62264161D01*
X200570142Y-62295790D01*
X200568900Y-62302434D01*
X200568900Y-62309094D01*
X200565606Y-62337483D01*
X200564083Y-62343955D01*
X200564083Y-62343960D01*
X200568305Y-62374224D01*
X200568900Y-62382800D01*
X200568900Y-64071156D01*
X200568305Y-64079732D01*
X200566655Y-64091556D01*
X200568834Y-64138690D01*
X200568900Y-64141553D01*
X200568900Y-64160746D01*
X200568901Y-64160759D01*
X200569376Y-64163300D01*
X200570365Y-64171830D01*
X200571778Y-64202366D01*
X200574468Y-64208459D01*
X200582921Y-64235754D01*
X200584143Y-64242294D01*
X200584144Y-64242296D01*
X200600229Y-64268275D01*
X200604237Y-64275878D01*
X200616584Y-64303840D01*
X200621287Y-64308543D01*
X200639031Y-64330943D01*
X200642535Y-64336602D01*
X200642536Y-64336603D01*
X200642538Y-64336606D01*
X200666927Y-64355023D01*
X200673404Y-64360659D01*
X200939907Y-64627162D01*
X200939908Y-64627163D01*
X200973393Y-64688486D01*
X200968409Y-64758178D01*
X200926537Y-64814111D01*
X200861073Y-64838528D01*
X200817293Y-64833821D01*
X200727650Y-64807500D01*
X200727648Y-64807500D01*
X200592352Y-64807500D01*
X200592351Y-64807500D01*
X200462538Y-64845616D01*
X200384540Y-64895743D01*
X200317500Y-64915428D01*
X200250461Y-64895744D01*
X200204706Y-64842940D01*
X200193500Y-64791428D01*
X200193500Y-62403762D01*
X200213185Y-62336723D01*
X200229813Y-62316086D01*
X200360575Y-62185324D01*
X200421894Y-62151842D01*
X200491586Y-62156826D01*
G37*
G04 #@! TD.AperFunction*
G04 #@! TD*
M02*
