M48
INCH,TZ
T1C0.0098
T2C0.0098
T3C0.0100
T4C0.0118
%
G90
G05
T1
X78902Y-25306
X79000Y-25700
X79100Y-35000
X79400Y-34900
X80000Y-26700
X80300Y-27300
X80700Y-26300
X81444Y-29256
T2
X70900Y-30264
X70900Y-30500
X70900Y-30736
X70900Y-30972
X70900Y-31209
X70900Y-31445
X70900Y-31681
X70900Y-31917
X70900Y-32154
X70900Y-32390
X70900Y-32626
X70900Y-32862
X70900Y-33098
X70900Y-33335
X70900Y-33571
X70900Y-33807
X70900Y-34043
X80291Y-35491
X80291Y-35964
X80291Y-36436
X80291Y-36909
X80585Y-31455
X80764Y-35491
X80764Y-35964
X80764Y-36436
X80764Y-36909
X80900Y-31140
X80900Y-31455
X80900Y-31770
X81215Y-31455
X81236Y-35491
X81236Y-35964
X81236Y-36436
X81236Y-36909
X81709Y-35491
X81709Y-35964
X81709Y-36436
X81709Y-36909
T3
X68900Y-37600
X68900Y-38100
X70100Y-38100
X70116Y-37516
X70500Y-36200
X70800Y-38500
X72300Y-31100
X72600Y-34500
X73000Y-30900
X73200Y-34600
X73200Y-36627
X73600Y-31300
X74300Y-34600
X74500Y-36700
X74700Y-31000
X75300Y-34600
X75800Y-30600
X76000Y-36700
X76400Y-34500
X76900Y-34500
X77700Y-36900
X77900Y-39100
X77900Y-40400
X78100Y-26300
X78100Y-28100
X78100Y-28900
X78100Y-36400
X78200Y-34200
X78200Y-39920
X78300Y-25200
X78500Y-24300
X78620Y-39920
X78656Y-34830
X78800Y-33800
X78839Y-34600
X78880Y-40040
X79081Y-34404
X79100Y-33200
X79100Y-39900
X79106Y-27475
X79300Y-24600
X79360Y-40020
X79400Y-29700
X79437Y-30300
X79437Y-30800
X79437Y-31300
X79437Y-31800
X79437Y-32300
X79437Y-32800
X79500Y-24400
X79700Y-40300
X79800Y-37400
X79834Y-25366
X80094Y-30092
X80100Y-39900
X80320Y-40040
X80500Y-40300
X80544Y-25654
X80587Y-27287
X80600Y-25100
X80600Y-30100
X80744Y-25820
X80984Y-27158
X81000Y-27800
X81070Y-27402
X81110Y-40200
X81200Y-24300
X81232Y-26375
X81282Y-25320
X81283Y-27549
X81330Y-40061
X81410Y-34736
X81411Y-28600
X81411Y-28918
X81546Y-40205
X81580Y-39772
X81590Y-32753
X81635Y-34435
X81758Y-40002
X81780Y-33004
X81800Y-29900
X81801Y-27050
X81900Y-34400
X81900Y-38800
X82000Y-24500
X82054Y-30285
X82100Y-32000
X82100Y-38200
X82300Y-29900
X82300Y-35000
X82500Y-26310
X82500Y-35300
X82500Y-36395
X82510Y-33700
X82524Y-33314
X82600Y-38600
X82600Y-40400
X82690Y-36200
X82800Y-29900
X82804Y-33996
X82810Y-35880
X82900Y-31500
X82906Y-25368
X83400Y-24700
X83500Y-26310
X83700Y-28000
X83700Y-29200
X84000Y-28800
X84100Y-27000
X84600Y-27000
X84700Y-28700
X84834Y-25590
X84865Y-27410
X85400Y-25000
X85900Y-26800
X86400Y-28000
X86400Y-28800
X86700Y-24800
X86790Y-28010
X86900Y-28800
X87200Y-25400
X87500Y-27400
X87600Y-27000
X88100Y-26000
X88100Y-28200
T4
X77027Y-37100
T0
M30
